<svg width="46" height="46" viewBox="0 0 46 46" fill="none" xmlns="http://www.w3.org/2000/svg">
<g clip-path="url(#clip0_349_2)">
<path d="M45.9953 8.17915C45.9953 9.81193 46 11.4493 45.9953 13.0821C45.9953 13.8546 45.5796 14.3634 44.8959 14.4929C44.0968 14.6409 43.3623 14.0812 43.3346 13.2348C43.3022 12.1755 43.3207 11.1163 43.3207 10.0571C43.3207 7.97101 43.3207 5.88493 43.3207 3.79886C43.3207 2.92002 43.099 2.698 42.2121 2.698C39.1494 2.698 36.0867 2.698 33.0241 2.698C32.2341 2.698 31.7537 2.36497 31.5736 1.71278C31.3657 0.958837 31.823 0.20489 32.5898 0.0522503C32.7561 0.0198722 32.9271 0.00599515 33.098 0.00599515C36.2068 0.00599515 39.3157 -0.00325573 42.4245 0.00599515C44.2076 0.015246 45.5611 1.06985 45.9168 2.7165C45.9861 3.04491 45.9907 3.39644 45.9953 3.73873C46.0046 5.21887 45.9953 6.69438 45.9953 8.17453V8.17915Z" fill="white"/>
<path d="M0.0730391 8.15077C0.0730391 6.63825 0.0684195 5.13035 0.0730391 3.61784C0.0822783 1.39762 1.47734 0.00999355 3.69927 0.00536823C6.74807 0.000742912 9.79688 0.00536823 12.8457 0.00536823C13.0767 0.00536823 13.3169 0.0192442 13.5386 0.0701237C14.1622 0.208887 14.5918 0.754689 14.5641 1.34212C14.5318 1.99431 14.0467 2.52623 13.4 2.60024C13.2152 2.62337 13.0258 2.61874 12.8411 2.61874C9.85231 2.61874 6.86818 2.61874 3.87943 2.61874C2.9694 2.61874 2.76153 2.83151 2.75691 3.7566C2.75691 6.84177 2.75691 9.92694 2.75691 13.0075C2.75691 14.039 1.88384 14.6819 0.964583 14.3581C0.419495 14.1638 0.0915165 13.6874 0.0730391 13.0075C0.0545616 12.3553 0.0684195 11.6985 0.0684195 11.0463C0.0684195 10.0796 0.0684195 9.11286 0.0684195 8.15077H0.0730391Z" fill="white"/>
<path d="M37.8572 45.9822C36.1757 45.9822 34.4989 45.9961 32.8174 45.973C32.1199 45.9637 31.6164 45.4596 31.5332 44.7843C31.4593 44.1968 31.8289 43.5816 32.4109 43.3966C32.6557 43.318 32.9329 43.3087 33.1916 43.3087C36.1619 43.3041 39.1321 43.3087 42.1024 43.3087C43.1556 43.3087 43.3312 43.1376 43.3312 42.0922C43.3312 39.1181 43.3312 36.1439 43.3312 33.1698C43.3312 32.9061 43.3358 32.6332 43.4143 32.3881C43.5945 31.7914 44.2366 31.4121 44.8371 31.5046C45.4838 31.6017 45.9134 32.0735 45.9411 32.7535C45.9596 33.253 45.9411 33.748 45.9411 34.2475C45.9411 36.9904 45.9504 39.7286 45.9411 42.4715C45.9319 44.2385 44.9202 45.5521 43.3035 45.9129C42.9893 45.9822 42.6567 45.9915 42.3288 45.9915C40.8367 46.0007 39.3446 45.9915 37.8479 45.9915C37.8479 45.9915 37.8479 45.9869 37.8479 45.9822H37.8572Z" fill="white"/>
<path d="M8.08739 45.9985C6.59532 45.9985 5.10325 45.9985 3.60657 45.9985C1.39849 45.9939 0.017292 44.6248 0.0126724 42.4231C0.00805378 39.3101 0.00805378 36.1926 0.0126724 33.0797C0.0126724 31.9742 0.885739 31.3035 1.81886 31.6689C2.36395 31.8817 2.66421 32.298 2.67345 32.8854C2.68731 33.5561 2.68269 34.2268 2.68269 34.8929C2.68269 37.3675 2.68269 39.8467 2.68269 42.3213C2.68269 43.1631 2.8998 43.3805 3.72667 43.3805C6.74314 43.3805 9.75961 43.3805 12.7761 43.3805C13.8616 43.3805 14.416 43.8153 14.4113 44.6618C14.4113 45.5036 13.7923 45.9939 12.7437 45.9985C11.187 45.9985 9.63489 45.9985 8.07815 45.9985H8.08739Z" fill="white"/>
</g>
<defs>
<clipPath id="clip0_349_2">
<rect width="46" height="46" fill="white"/>
</clipPath>
</defs>
</svg>
