<svg width="40" height="40" viewBox="0 0 40 40" fill="none" xmlns="http://www.w3.org/2000/svg">
<g clip-path="url(#clip0_265_3)">
<path d="M18.336 0C19.4281 0 20.5211 0 21.6132 0C22.3317 0.10471 23.0572 0.178163 23.7686 0.318037C34.0233 2.33253 41.0077 11.776 39.8804 22.1173C39.509 25.5274 38.3285 28.6429 36.3616 31.4622C31.8202 37.9699 23.6623 41.2839 15.9289 39.539C8.04143 37.7597 2.96218 32.8617 0.634027 25.1241C0.28926 23.9778 0.146975 22.7885 0 21.6031V18.3274C0.113359 17.5319 0.17981 16.7278 0.365875 15.9448C2.23981 8.06736 7.06342 2.96548 14.8156 0.632949C15.9617 0.288343 17.1508 0.147688 18.336 0ZM22.524 23.4355H22.5216C22.5216 21.6679 22.5412 19.9004 22.5154 18.1328C22.4951 16.7638 21.3576 15.6963 19.9816 15.694C18.6018 15.6917 17.444 16.7505 17.4346 18.1172C17.4111 21.6648 17.4142 25.2132 17.4346 28.7616C17.44 29.6704 17.8982 30.3815 18.6839 30.8394C20.3897 31.8342 22.4943 30.641 22.5185 28.6608C22.5396 26.9198 22.5232 25.1781 22.5232 23.4363L22.524 23.4355ZM19.9222 13.6975C20.052 13.6975 20.1825 13.7061 20.3115 13.6959C21.6273 13.5975 22.6006 12.3698 22.4177 11.1086C22.0979 8.89566 19.5962 8.64483 18.4048 9.5247C17.5995 10.1194 17.2978 11.1922 17.6433 12.2175C17.9545 13.1388 18.8222 13.7069 19.9214 13.6975H19.9222Z" fill="white"/>
</g>
<defs>
<clipPath id="clip0_265_3">
<rect width="40" height="40" fill="white"/>
</clipPath>
</defs>
</svg>
