<svg width="46" height="46" viewBox="0 0 46 46" fill="none" xmlns="http://www.w3.org/2000/svg">
<g clip-path="url(#clip0_56_431)">
<path d="M31.5274 6.33696C31.5274 4.70418 31.5228 3.06677 31.5274 1.43399C31.5274 0.661546 31.9432 0.152747 32.6268 0.0232349C33.426 -0.124779 34.1605 0.434899 34.1882 1.28135C34.2205 2.34058 34.2021 3.39981 34.2021 4.45903C34.2021 6.54511 34.2021 8.63118 34.2021 10.7173C34.2021 11.5961 34.4238 11.8181 35.3107 11.8181C38.3734 11.8181 41.436 11.8181 44.4987 11.8181C45.2886 11.8181 45.769 12.1511 45.9492 12.8033C46.1571 13.5573 45.6997 14.3112 44.9329 14.4639C44.7666 14.4962 44.5957 14.5101 44.4248 14.5101C41.3159 14.5101 38.2071 14.5194 35.0982 14.5101C33.3151 14.5009 31.9616 13.4463 31.606 11.7996C31.5367 11.4712 31.532 11.1197 31.5274 10.7774C31.5182 9.29724 31.5274 7.82173 31.5274 6.34159V6.33696Z" fill="white"/>
<path d="M14.5557 6.29503C14.5557 7.80755 14.5603 9.31545 14.5557 10.828C14.5464 13.0482 13.1514 14.4358 10.9295 14.4404C7.88065 14.4451 4.83184 14.4404 1.78304 14.4404C1.55207 14.4404 1.31186 14.4266 1.09013 14.3757C0.46651 14.2369 0.0369053 13.6911 0.0646218 13.1037C0.0969576 12.4515 0.581995 11.9196 1.22871 11.8456C1.41349 11.8224 1.60288 11.8271 1.78766 11.8271C4.77641 11.8271 7.76054 11.8271 10.7493 11.8271C11.6593 11.8271 11.8672 11.6143 11.8718 10.6892C11.8718 7.60403 11.8718 4.51886 11.8718 1.43832C11.8718 0.406848 12.7449 -0.236088 13.6641 0.087693C14.2092 0.281961 14.5372 0.758382 14.5557 1.43832C14.5742 2.09051 14.5603 2.74732 14.5603 3.39951C14.5603 4.36622 14.5603 5.33294 14.5603 6.29503H14.5557Z" fill="white"/>
<path d="M39.616 31.5041C41.2974 31.5041 42.9743 31.4902 44.6557 31.5133C45.3533 31.5226 45.8568 32.0268 45.9399 32.7021C46.0138 33.2895 45.6443 33.9047 45.0622 34.0897C44.8174 34.1683 44.5402 34.1776 44.2816 34.1776C41.3113 34.1822 38.341 34.1776 35.3707 34.1776C34.3175 34.1776 34.142 34.3487 34.142 35.3941C34.142 38.3682 34.142 41.3424 34.142 44.3166C34.142 44.5802 34.1374 44.8531 34.0588 45.0983C33.8787 45.6949 33.2366 46.0742 32.6361 45.9817C31.9893 45.8846 31.5597 45.4128 31.532 44.7328C31.5135 44.2333 31.532 43.7384 31.532 43.2388C31.532 40.4959 31.5228 37.7577 31.532 35.0148C31.5413 33.2479 32.5529 31.9343 34.1697 31.5735C34.4838 31.5041 34.8164 31.4948 35.1444 31.4948C36.6365 31.4856 38.1285 31.4948 39.6252 31.4948C39.6252 31.4948 39.6252 31.4995 39.6252 31.5041H39.616Z" fill="white"/>
<path d="M6.33314 31.5688C7.82521 31.5688 9.31728 31.5688 10.814 31.5688C13.022 31.5735 14.4032 32.9426 14.4079 35.1443C14.4125 38.2572 14.4125 41.3748 14.4079 44.4877C14.4079 45.5932 13.5348 46.2639 12.6017 45.8985C12.0566 45.6857 11.7563 45.2694 11.7471 44.682C11.7332 44.0113 11.7378 43.3406 11.7378 42.6745C11.7378 40.1999 11.7378 37.7207 11.7378 35.2461C11.7378 34.4042 11.5207 34.1868 10.6939 34.1868C7.67739 34.1868 4.66092 34.1868 1.64445 34.1868C0.558893 34.1868 0.00456451 33.7521 0.00918391 32.9056C0.00918391 32.0638 0.628184 31.5735 1.67679 31.5688C3.23353 31.5688 4.78565 31.5688 6.34238 31.5688H6.33314Z" fill="white"/>
</g>
<defs>
<clipPath id="clip0_56_431">
<rect width="46" height="46" fill="white"/>
</clipPath>
</defs>
</svg>
