<svg width="41" height="41" viewBox="0 0 41 41" fill="none" xmlns="http://www.w3.org/2000/svg">
<path d="M0 28.3327C0.0977183 27.7202 0.177488 27.1038 0.293155 26.4934C0.945275 23.0284 2.37515 19.8805 4.21186 16.9003C6.17022 13.7205 8.55933 10.8998 11.3333 8.40225C11.5108 8.24266 11.6863 8.08308 11.9236 7.86564C11.5507 7.81776 11.2476 7.77986 10.9445 7.74196C10.747 7.71802 10.5476 7.70406 10.3522 7.67014C9.65617 7.54846 9.24734 6.9919 9.33709 6.29371C9.41486 5.68927 10.0072 5.22248 10.6593 5.28632C11.7023 5.38606 12.7453 5.50575 13.7883 5.61746C14.1851 5.65935 14.578 5.71521 14.9748 5.75111C15.7845 5.82492 16.2671 6.41539 16.1774 7.2233C16.0198 8.63564 15.8643 10.048 15.7147 11.4603C15.6349 12.2084 15.1005 12.6772 14.3686 12.6193C13.7284 12.5695 13.2737 12.0149 13.3156 11.3127C13.3455 10.814 13.4054 10.3153 13.4592 9.75076C13.2398 9.94426 13.0604 10.0959 12.8849 10.2555C8.82656 13.9698 5.63974 18.2986 3.6415 23.4513C2.82984 25.5459 2.33327 27.7123 2.3951 29.9764C2.43698 31.5224 2.79395 32.9906 3.50589 34.377C4.56085 36.4297 6.22805 37.6785 8.46759 38.1393C11.5826 38.7796 14.588 38.2889 17.5175 37.1578C17.5275 37.1538 17.5315 37.1379 17.5654 37.084C17.4557 37.0122 17.342 36.9344 17.2263 36.8626C12.8629 34.1995 9.17156 30.7943 6.08845 26.7228C5.46226 25.897 5.8292 24.8676 6.81236 24.71C7.3209 24.6282 7.70579 24.8616 8.00692 25.2646C9.73195 27.5587 11.6923 29.6313 13.882 31.4885C15.7526 33.0744 17.7588 34.4608 19.9146 35.6318C20.2815 35.8312 20.5567 35.8432 20.9317 35.6417C24.6011 33.6668 27.764 31.0596 30.5699 27.9995C32.5801 25.8072 34.3271 23.4214 35.7091 20.7782C35.8407 20.5269 35.8407 20.3334 35.7091 20.08C33.8325 16.4614 31.2878 13.3614 28.3204 10.5986C25.5902 8.05714 22.5869 5.90471 19.1767 4.35872C16.5264 3.15783 13.7643 2.40577 10.8328 2.42173C9.49663 2.42971 8.1884 2.65513 6.95994 3.2077C4.49504 4.31682 3.14294 6.28573 2.63042 8.88699C2.31533 10.4849 2.41304 12.0847 2.6384 13.6846C2.74409 14.4326 2.31732 15.0091 1.63329 15.1009C0.931315 15.1947 0.356971 14.7339 0.251276 13.9818C0.161534 13.3375 0.0837586 12.6931 0 12.0508C0 11.4125 0 10.7741 0 10.1358C0.0797701 9.61312 0.157546 9.09047 0.23931 8.56782C0.891431 4.4824 3.73125 1.38043 7.74966 0.402957C8.47956 0.225416 9.23139 0.131659 9.97325 0C10.7171 0 11.463 0 12.2068 0C12.2946 0.023938 12.3823 0.0618399 12.4721 0.0698193C15.0726 0.299225 17.5654 0.959516 19.9246 2.06067C27.0939 5.40601 32.6958 10.5188 36.8657 17.2254C36.9375 17.3411 37.0113 17.4528 37.1031 17.5984C38.2139 15.1588 38.6486 11.6139 38.2398 9.0027C37.5897 4.85144 34.4686 2.75886 30.8331 2.46163C29.5907 2.35989 28.3682 2.48756 27.1418 2.62919C26.384 2.71697 25.8216 2.26613 25.7578 1.58589C25.69 0.873738 26.1506 0.341117 26.9184 0.241375C27.4908 0.165571 28.0671 0.0817883 28.6434 0C29.3873 0 30.1331 0 30.877 0C31.5132 0.107721 32.1593 0.183525 32.7875 0.331143C36.09 1.10713 38.5728 2.92443 39.9169 6.10819C40.8104 8.2267 40.948 10.4629 40.7426 12.7231C40.5072 15.3084 39.7973 17.772 38.7124 20.1299C38.6326 20.3034 38.6486 20.5688 38.7164 20.7543C38.9996 21.5263 39.3506 22.2723 39.6198 23.0483C40.6688 26.0865 41.2371 29.1884 40.603 32.3981C39.903 35.939 37.9526 38.5243 34.5863 39.9366C32.1653 40.952 29.6366 41.0438 27.074 40.6568C24.8683 40.3236 22.7764 39.6254 20.7462 38.7158C20.5707 38.638 20.3095 38.644 20.124 38.7118C19.1767 39.0529 18.2574 39.4718 17.3001 39.779C14.6219 40.6368 11.8937 41.1116 9.06786 40.7126C4.57681 40.0783 1.50566 37.3254 0.396856 32.9048C0.227345 32.2405 0.129626 31.5583 0 30.886C0 30.0343 0 29.1825 0 28.3327ZM23.259 37.104C23.3746 37.1618 23.4504 37.2057 23.5322 37.2376C25.8595 38.1133 28.2625 38.5522 30.7494 38.3806C32.3009 38.2729 33.7946 37.9039 35.1008 37.0062C37.2785 35.5081 38.1819 33.3217 38.3714 30.7823C38.5429 28.4583 38.16 26.2042 37.4102 24.0079C37.3284 23.7665 37.2247 23.5311 37.111 23.2398C33.5992 29.0129 29.0044 33.605 23.259 37.1059V37.104Z" fill="#0060E4"/>
<path d="M23 14L17 20.5L23 27" stroke="#0060E4" stroke-width="3" stroke-linecap="round"/>
</svg>
