<svg width="29" height="29" viewBox="0 0 29 29" fill="none" xmlns="http://www.w3.org/2000/svg">
<path d="M19.6659 29.0008H9.37086C9.25935 28.9882 9.14784 28.9671 9.03633 28.9671C8.23469 28.9587 7.43514 28.8934 6.64823 28.7356C3.54057 28.1124 1.44916 26.3378 0.508653 23.2728C0.104678 21.9592 0.0520749 20.5993 0.0331386 19.2415C-0.0110462 16.1196 -0.0110462 12.9977 0.0331386 9.87587C0.0478669 8.78542 0.0836437 7.68866 0.304568 6.61295C0.952611 3.45739 2.7747 1.36491 5.89709 0.459711C7.2058 0.0807915 8.5566 0.032374 9.90319 0.0197433C12.9477 -0.00762314 15.9944 -0.00551803 19.0389 0.0197433C20.1583 0.0281637 21.2818 0.0639506 22.3864 0.289197C25.5762 0.937571 27.6823 2.77954 28.5786 5.94563C28.7848 6.674 28.8606 7.42342 28.9468 8.17284V20.6814C28.8795 21.2308 28.8437 21.7866 28.7406 22.3318C28.3956 24.1569 27.6066 25.7358 26.1842 26.963C24.724 28.224 22.9882 28.7566 21.1051 28.9061C20.6275 28.944 20.1498 28.9692 19.6701 29.0008H19.6659ZM14.5047 26.3694C16.1922 26.3968 17.8796 26.342 19.567 26.3105C20.375 26.2957 21.1871 26.262 21.9846 26.0936C24.0634 25.6516 25.431 24.4474 25.997 22.3718C26.2642 21.3866 26.2978 20.3762 26.3126 19.3699C26.3462 16.9848 26.3462 14.5976 26.3399 12.2104C26.3357 10.619 26.3673 9.0233 26.1548 7.43815C25.8329 5.03412 24.3769 3.46581 22.0056 2.96269C20.882 2.72481 19.7375 2.72481 18.6013 2.71218C15.8871 2.68271 13.1708 2.68481 10.4566 2.71218C9.3856 2.7227 8.30833 2.74376 7.24579 2.92269C4.98815 3.30372 3.49849 4.70572 2.99142 6.93714C2.76208 7.94759 2.73893 8.97909 2.73052 10.0022C2.70316 13.0209 2.70527 16.0396 2.73052 19.0563C2.73893 20.0057 2.76419 20.9614 2.94724 21.9003C3.36594 24.0496 4.58838 25.4537 6.73029 26.0158C7.63082 26.2515 8.5566 26.2915 9.47817 26.3105C11.1551 26.342 12.8341 26.3968 14.511 26.3694H14.5047Z" fill="black"/>
<path d="M14.4961 21.9971C10.3911 21.9908 7.03095 18.6163 7.03516 14.5029C7.03937 10.3959 10.4142 7.02558 14.5192 7.02979C18.6347 7.03189 22.0117 10.4232 21.997 14.5408C21.9822 18.65 18.6074 22.0055 14.4961 21.9992V21.9971ZM9.72622 14.5071C9.72622 17.1596 11.8576 19.3026 14.5003 19.3047C17.1514 19.3047 19.3017 17.1722 19.3059 14.5345C19.3101 11.8715 17.1682 9.72012 14.515 9.72012C11.8723 9.72012 9.72832 11.8631 9.72622 14.5071Z" fill="black"/>
<path d="M22.2429 8.53282C21.2561 8.53282 20.4902 7.76656 20.4902 6.77506C20.4902 5.79829 21.2666 5.00887 22.2387 4.99624C23.1855 4.98361 24.0103 5.79829 24.0208 6.75611C24.0313 7.73078 23.2276 8.53072 22.2408 8.53072L22.2429 8.53282Z" fill="black"/>
</svg>
