<svg width="29" height="29" viewBox="0 0 29 29" fill="none" xmlns="http://www.w3.org/2000/svg">
<path d="M10.0998 28.5473C10.0935 28.4273 10.083 28.3073 10.083 28.1873C10.083 22.0972 10.083 16.0092 10.083 9.91915C10.083 9.62162 10.2275 9.47286 10.5164 9.47286C12.1576 9.47286 13.8008 9.47918 15.442 9.46655C15.7218 9.46655 15.8144 9.54654 15.8039 9.82863C15.785 10.4602 15.7955 11.0917 15.7997 11.7211C15.7997 11.8074 15.766 11.9064 15.8628 12.0137C16.1279 11.5632 16.4351 11.1612 16.7991 10.8054C17.9016 9.73179 19.2335 9.17604 20.7505 9.02447C21.7773 8.92132 22.7872 9.01605 23.7866 9.24341C25.9369 9.72969 27.294 11.0727 27.9589 13.1484C28.2724 14.1252 28.4302 15.1314 28.4933 16.1524C28.4975 16.2345 28.5186 16.3166 28.5312 16.3987C28.5312 20.3731 28.5312 24.3476 28.5375 28.3241C28.5375 28.5157 28.4997 28.5536 28.3103 28.5536C26.4167 28.5452 24.523 28.5473 22.6294 28.5473C22.6231 28.4273 22.6083 28.3073 22.6083 28.1873C22.6083 26.9242 22.6104 25.6612 22.6083 24.3981C22.5999 22.2067 22.6504 20.0153 22.5579 17.8259C22.5284 17.1102 22.4211 16.4029 22.1139 15.744C21.7667 14.9988 21.1965 14.523 20.3844 14.3483C19.9068 14.2473 19.427 14.2473 18.9452 14.2999C17.8595 14.4199 17.0432 14.9377 16.5655 15.9419C16.2247 16.6597 16.0837 17.4302 16.0795 18.2112C16.0606 21.6551 16.0648 25.1012 16.0606 28.5452H10.1019L10.0998 28.5473Z" fill="black"/>
<path d="M0.46534 28.5474C0.461132 28.4168 0.452716 28.2884 0.452716 28.1579C0.452716 22.0952 0.452716 16.0325 0.452716 9.96977C0.452716 9.89609 0.456924 9.8203 0.452716 9.74662C0.437988 9.54243 0.528457 9.46664 0.730444 9.47085C1.34272 9.47928 1.955 9.47296 2.56727 9.47296C3.75605 9.47296 4.94273 9.47717 6.13151 9.46875C6.36085 9.46875 6.44081 9.54453 6.44081 9.77399C6.4366 15.9862 6.4366 22.1962 6.4366 28.4084C6.4366 28.4547 6.42818 28.5011 6.42398 28.5474H0.46534Z" fill="black"/>
<path d="M0 3.43765C0 1.51779 1.52332 -0.00210293 3.44641 2.1841e-06C5.36529 2.1841e-06 6.88862 1.5241 6.88862 3.44607C6.88862 5.36382 5.33163 6.94055 3.4401 6.94055C1.55067 6.94055 0 5.35961 0 3.43975V3.43765Z" fill="black"/>
</svg>
