<svg width="37" height="29" viewBox="0 0 37 29" fill="none" xmlns="http://www.w3.org/2000/svg">
<g clip-path="url(#clip0_91_11)">
<path d="M33.4587 28.9092H3.81826C3.6115 28.8783 3.40055 28.8618 3.19588 28.8164C1.64201 28.4596 0.633252 27.2223 0.631163 25.6446C0.624897 21.9819 0.629074 18.3213 0.629074 14.6587C0.629074 13.215 0.629074 11.7714 0.631163 10.3278C0.631163 10.2309 0.583127 10.0927 0.702173 10.0494C0.817042 10.0061 0.881787 10.1339 0.950708 10.2041C1.5167 10.7774 2.14952 11.2682 2.81994 11.7199C6.5417 14.2256 10.2551 16.7437 13.9121 19.3422C14.6765 19.8866 15.4931 20.33 16.3578 20.6889C17.3102 21.0848 18.2918 21.3137 19.3319 21.1426C20.6748 20.9219 21.882 20.3609 22.9784 19.5979C26.4245 17.2056 29.8643 14.8051 33.3543 12.4767C34.4507 11.7467 35.5597 11.0311 36.4683 10.0638C36.5038 10.0246 36.5664 10.0102 36.6186 9.9834V26.3437C36.4056 27.016 36.0819 27.6162 35.5368 28.0926C34.9395 28.6143 34.2294 28.8329 33.4587 28.9092Z" fill="black"/>
<path d="M36.6209 3.46852V4.92451C36.4475 5.53496 36.27 6.14334 35.9421 6.70016C35.1485 8.05098 34.0081 9.05532 32.7237 9.93387C29.3068 12.2684 25.9025 14.6174 22.4961 16.9643C21.8048 17.4407 21.0989 17.8944 20.3533 18.2842C19.2109 18.8843 18.0747 18.8864 16.9302 18.2883C16.3078 17.9645 15.7084 17.6036 15.1341 17.2056C11.5251 14.7226 7.92238 12.2292 4.30922 9.75032C3.32761 9.07801 2.48594 8.27371 1.7633 7.33742C0.840174 6.13715 0.343104 4.8379 0.783784 3.3221C1.13883 2.10533 1.84685 1.21235 3.18559 0.987561C3.6221 0.91538 4.07322 0.913318 4.51599 0.913318C13.7744 0.909193 23.0329 0.909193 32.2893 0.909193C32.5691 0.909193 32.8511 0.911256 33.1309 0.909193C34.052 0.907131 34.8832 1.13811 35.5829 1.76711C36.1029 2.23526 36.4078 2.82096 36.6188 3.46646L36.6209 3.46852Z" fill="black"/>
</g>
<defs>
<clipPath id="clip0_91_11">
<rect width="36" height="28" fill="white" transform="translate(0.620605 0.90918)"/>
</clipPath>
</defs>
</svg>
