<svg width="28" height="25" viewBox="0 0 28 25" fill="none" xmlns="http://www.w3.org/2000/svg">
<path d="M21.1713 24.9944C19.1449 25.0636 17.3359 24.2959 15.5141 23.6163C10.6304 21.804 6.96765 18.513 3.82905 14.6052C2.5442 13.0069 1.34246 11.3582 0.613739 9.43898C-0.17251 7.37499 -0.249216 5.32359 0.652094 3.27848C1.11234 2.24019 1.83466 1.37809 2.69762 0.622976C3.20261 0.176198 3.83544 0.00629265 4.50024 0C5.01801 0 5.53579 0.0314663 6.05356 0.0818075C6.57773 0.132149 6.85899 0.497117 7.05715 0.912432C7.40872 1.65497 7.72194 2.41009 8.04795 3.15891C8.46984 4.12798 8.88534 5.10964 9.32001 6.07241C9.56931 6.63246 9.55013 7.15475 9.17299 7.64558C8.6616 8.3126 8.16301 8.99849 7.60688 9.63405C7.18499 10.1186 7.16582 10.5465 7.50461 11.0814C9.71633 14.6052 12.7654 17.1726 16.7478 18.7018C17.3167 18.922 17.7898 18.8654 18.1861 18.3871C18.8445 17.5942 19.5221 16.8077 20.1805 16.0148C20.6982 15.3918 21.0115 15.266 21.7722 15.568C23.7154 16.3294 25.5756 17.2607 27.4421 18.1732C27.9854 18.4375 28.0238 18.9157 27.9918 19.4128C27.7681 22.5592 25.2943 24.856 21.9767 24.9944C21.7082 25.007 21.4398 24.9944 21.1713 24.9944Z" fill="black"/>
</svg>
