<svg width="26" height="29" viewBox="0 0 26 29" fill="none" xmlns="http://www.w3.org/2000/svg">
<path d="M8.25624 28.5812C7.54929 28.4844 6.83812 28.3939 6.16273 28.1497C2.78154 26.9308 0.681707 24.5815 0.109409 21.0134C-0.675398 16.1084 2.85939 11.6814 7.58716 10.9825C8.40984 10.8604 9.23252 10.852 10.0573 10.9404C10.2488 10.9615 10.335 11.0393 10.3329 11.2393C10.3287 12.6519 10.3266 14.0665 10.3329 15.479C10.3329 15.7253 10.2425 15.7506 10.0278 15.698C7.61661 15.0938 5.32321 16.5568 4.84349 18.9988C4.3764 21.3712 6.21743 23.7205 8.62235 23.8995C10.819 24.0616 12.862 22.508 13.1292 20.1839C13.1565 19.9545 13.1481 19.7208 13.1481 19.4872C13.1481 13.1844 13.1502 6.88175 13.1523 0.576943C13.1523 0.473793 13.1565 0.372747 13.1523 0.269597C13.1439 0.080137 13.2281 0.00224788 13.4174 0.00435299C13.8362 0.0106683 14.2528 0.00435299 14.6715 0.00435299C15.6288 0.00435299 16.5861 0.0127734 17.5414 0.000142773C17.7938 -0.00406745 17.8906 0.0843472 17.9012 0.330645C17.9769 2.13683 18.6649 3.68619 19.9168 4.97662C21.0825 6.17864 22.509 6.88385 24.1754 7.08594C24.4784 7.12384 24.7856 7.13436 25.0906 7.15541V11.8414C24.8024 11.8624 24.5162 11.8267 24.2301 11.8077C22.7489 11.7109 21.3413 11.3362 20.001 10.7046C19.3361 10.391 18.7028 10.0226 18.1116 9.58471C17.9727 9.48156 17.8948 9.47735 17.899 9.67944C17.899 9.75312 17.899 9.8289 17.899 9.90258C17.9033 13.1276 17.9075 16.3505 17.9138 19.5756C17.9138 20.0492 17.8927 20.5229 17.8107 20.9902C17.2005 24.491 15.2059 26.8382 11.9004 28.0928C11.1745 28.3686 10.4129 28.4739 9.64912 28.5791H8.25624V28.5812Z" fill="black"/>
</svg>
