<svg width="58" height="58" viewBox="0 0 58 58" fill="none" xmlns="http://www.w3.org/2000/svg">
<path d="M0 40.2096C0.138682 39.3405 0.251891 38.4657 0.416045 37.5994C1.34153 32.6818 3.37081 28.2144 5.97746 23.9848C8.75675 19.4721 12.1474 15.4689 16.0842 11.9244C16.3361 11.698 16.5852 11.4715 16.922 11.1629C16.3927 11.0949 15.9625 11.0411 15.5323 10.9874C15.2521 10.9534 14.9691 10.9336 14.6917 10.8854C13.704 10.7127 13.1238 9.92288 13.2512 8.93201C13.3615 8.07419 14.2021 7.41173 15.1276 7.50232C16.6078 7.64387 18.088 7.81374 19.5682 7.97228C20.1315 8.03173 20.689 8.111 21.2522 8.16196C22.4013 8.26671 23.0862 9.1047 22.9589 10.2513C22.7353 12.2557 22.5145 14.2601 22.3022 16.2645C22.189 17.3261 21.4305 17.9914 20.3918 17.9093C19.4833 17.8385 18.838 17.0515 18.8975 16.055C18.9399 15.3472 19.0248 14.6394 19.1013 13.8382C18.7899 14.1129 18.5352 14.328 18.2861 14.5545C12.5266 19.8259 8.0039 25.9693 5.16801 33.282C4.0161 36.2546 3.31137 39.3291 3.39911 42.5424C3.45855 44.7365 3.96516 46.8201 4.97555 48.7877C6.47275 51.7009 8.83882 53.4731 12.0172 54.1271C16.438 55.0359 20.7032 54.3394 24.8608 52.7342C24.8749 52.7286 24.8806 52.7059 24.9287 52.6295C24.773 52.5276 24.6117 52.4171 24.4476 52.3152C18.255 48.5358 13.0162 43.7031 8.64071 37.9249C7.75201 36.7529 8.27278 35.292 9.66808 35.0684C10.3898 34.9523 10.936 35.2836 11.3634 35.8554C13.8115 39.1111 16.5937 42.0526 19.7013 44.6883C22.356 46.939 25.2032 48.9066 28.2627 50.5685C28.7835 50.8516 29.1741 50.8686 29.7061 50.5826C34.9138 47.7799 39.4025 44.0797 43.3847 39.7368C46.2375 36.6255 48.7168 33.2395 50.6782 29.4884C50.865 29.1316 50.865 28.857 50.6782 28.4975C48.0149 23.3619 44.4036 18.9625 40.1922 15.0414C36.3176 11.4347 32.0552 8.37995 27.2155 6.18587C23.4542 4.48157 19.5343 3.41426 15.3738 3.43691C13.4776 3.44824 11.6209 3.76815 9.87752 4.55235C6.37935 6.12642 4.46045 8.92068 3.73308 12.6124C3.2859 14.8801 3.42458 17.1506 3.7444 19.4211C3.8944 20.4827 3.28873 21.3009 2.31796 21.4312C1.32172 21.5642 0.506612 20.9102 0.35661 19.8429C0.229249 18.9285 0.11887 18.0141 0 17.1025C0 16.1965 0 15.2906 0 14.3846C0.113209 13.6429 0.223589 12.9012 0.339628 12.1594C1.26511 6.3614 5.29537 1.9591 10.9983 0.571875C12.0342 0.31991 13.1012 0.18685 14.154 0C15.2097 0 16.2682 0 17.3239 0C17.4484 0.0339728 17.5729 0.087763 17.7003 0.0990872C21.3909 0.42466 24.9287 1.36174 28.2769 2.92449C38.4516 7.67218 46.4017 14.9282 52.3197 24.4462C52.4216 24.6104 52.5263 24.769 52.6565 24.9756C54.233 21.5133 54.8499 16.4825 54.2698 12.7766C53.3471 6.88515 48.9178 3.91536 43.7583 3.49353C41.995 3.34915 40.2601 3.53034 38.5195 3.73134C37.444 3.85591 36.6459 3.21609 36.5553 2.2507C36.4591 1.24001 37.1129 0.484112 38.2025 0.342559C39.0148 0.234978 39.8327 0.116074 40.6507 0C41.7063 0 42.7648 0 43.8205 0C44.7234 0.152877 45.6404 0.260458 46.5319 0.469957C51.2188 1.57124 54.7424 4.15034 56.65 8.66872C57.9179 11.6753 58.1132 14.8489 57.8217 18.0565C57.4877 21.7256 56.4802 25.2219 54.9405 28.5683C54.8273 28.8146 54.8499 29.1911 54.9462 29.4544C55.3481 30.55 55.8462 31.6088 56.2283 32.7101C57.717 37.0218 58.5236 41.4241 57.6236 45.9793C56.6302 51.0044 53.8622 54.6735 49.0848 56.6779C45.6489 58.1189 42.0601 58.2491 38.4233 57.6999C35.293 57.2271 32.3241 56.2363 29.4429 54.9453C29.1939 54.8349 28.8231 54.8434 28.5599 54.9396C27.2155 55.4237 25.9108 56.0183 24.5523 56.4542C20.7513 57.6716 16.8795 58.3454 12.8691 57.7792C6.49539 56.8789 2.13683 52.972 0.563217 46.6984C0.322647 45.7557 0.183965 44.7874 0 43.8334C0 42.6245 0 41.4156 0 40.2096ZM33.009 52.6578C33.1732 52.7399 33.2807 52.8022 33.3968 52.8475C36.6997 54.0903 40.1101 54.7131 43.6394 54.4697C45.8413 54.3168 47.9612 53.793 49.815 52.5191C52.9056 50.3929 54.1877 47.2901 54.4565 43.6861C54.6999 40.388 54.1565 37.1889 53.0924 34.0719C52.9763 33.7293 52.8292 33.3952 52.6678 32.9819C47.6838 41.175 41.1629 47.6921 33.009 52.6606V52.6578Z" fill="white"/>
</svg>
