<svg width="42" height="42" viewBox="0 0 42 42" fill="none" xmlns="http://www.w3.org/2000/svg">
<path d="M0 29.1139C0.100889 28.4855 0.183434 27.848 0.302666 27.2243C0.972201 23.6653 2.44426 20.4274 4.32905 17.3683C6.34224 14.1029 8.79567 11.2043 11.6481 8.63601C11.8315 8.47091 12.0104 8.3058 12.2534 8.08566C11.8728 8.03521 11.5609 7.99852 11.2445 7.95724C11.0427 7.93431 10.8364 7.91596 10.6346 7.88386C9.9192 7.76003 9.50189 7.18674 9.58902 6.46669C9.66698 5.84295 10.2769 5.36598 10.9464 5.43019C12.0195 5.53567 13.088 5.65492 14.1611 5.76957C14.5693 5.81544 14.9728 5.87047 15.381 5.90716C16.211 5.98513 16.7109 6.59052 16.6191 7.42064C16.4586 8.86992 16.2981 10.3238 16.1422 11.773C16.0597 12.5435 15.5094 13.0251 14.7573 12.9655C14.1015 12.915 13.6292 12.3463 13.675 11.6217C13.7071 11.108 13.7667 10.599 13.8218 10.0165C13.5971 10.2137 13.409 10.3696 13.2302 10.5347C9.05706 14.3506 5.78276 18.7993 3.7283 24.0965C2.89367 26.2474 2.38464 28.4764 2.44885 30.8016C2.4947 32.3885 2.85699 33.8974 3.59072 35.3237C4.67757 37.4334 6.3881 38.7176 8.6902 39.19C11.8911 39.8504 14.982 39.3459 17.9903 38.181C17.9995 38.181 18.0041 38.1581 18.0408 38.1076C17.9261 38.0342 17.8115 37.9517 17.6922 37.8783C13.2073 35.1403 9.41476 31.6409 6.24593 27.4582C5.60391 26.6097 5.97995 25.5503 6.98884 25.3898C7.51163 25.3072 7.90601 25.5457 8.21785 25.9585C9.99258 28.3159 12.0058 30.4439 14.2574 32.3518C16.1789 33.9799 18.2425 35.4063 20.4575 36.6079C20.8335 36.8143 21.1179 36.828 21.5031 36.6171C25.2726 34.5899 28.524 31.9069 31.4085 28.7653C33.4767 26.5134 35.2698 24.0598 36.6914 21.3447C36.8244 21.0878 36.829 20.886 36.6914 20.6292C34.7608 16.9097 32.1468 13.7268 29.0972 10.8879C26.2907 8.27828 23.2044 6.0631 19.7008 4.47623C16.9768 3.24252 14.1382 2.46743 11.1253 2.48578C9.75411 2.49495 8.40587 2.72427 7.14476 3.29297C4.60878 4.43496 3.22386 6.45752 2.69648 9.13134C2.37089 10.7732 2.47178 12.4151 2.70565 14.0616C2.81571 14.8321 2.37547 15.4237 1.67384 15.5155C0.953858 15.6118 0.362283 15.1394 0.252222 14.3643C0.165091 13.7039 0.0871312 13.0435 0 12.383C0 11.7272 0 11.0713 0 10.4155C0.0825454 9.8789 0.160505 9.34231 0.247636 8.80571C0.917171 4.60465 3.83377 1.41717 7.96563 0.412768C8.71771 0.233902 9.48813 0.137589 10.2494 0C11.0152 0 11.7811 0 12.5469 0C12.6386 0.0229315 12.7257 0.0642083 12.8175 0.0733809C15.491 0.311869 18.0545 0.990642 20.4758 2.11887C27.8453 5.5586 33.6006 10.8099 37.8883 17.7031C37.9617 17.8224 38.0351 17.937 38.1314 18.0884C39.2733 15.5797 39.7181 11.9382 39.3008 9.25517C38.6312 4.9899 35.4257 2.83892 31.6883 2.53164C30.4134 2.42616 29.1569 2.55916 27.8958 2.70592C27.1162 2.79765 26.5383 2.32984 26.4741 1.63272C26.4054 0.898916 26.8777 0.353146 27.6665 0.252247C28.2535 0.169693 28.845 0.0825535 29.4366 0C30.2024 0 30.9683 0 31.7341 0C32.3899 0.110071 33.0503 0.188039 33.6969 0.339387C37.0904 1.1374 39.6447 3.00403 41.0251 6.27865C41.9422 8.45715 42.0844 10.7549 41.8734 13.0756C41.6304 15.731 40.9012 18.2627 39.7869 20.6888C39.7043 20.8677 39.7227 21.1383 39.7915 21.3309C40.0804 22.1243 40.4427 22.8903 40.7178 23.6883C41.7955 26.8115 42.3779 29.999 41.7267 33.2966C41.0067 36.9335 39.0027 39.589 35.545 41.0429C33.0548 42.0885 30.4592 42.1803 27.8224 41.7812C25.557 41.4373 23.4062 40.7218 21.3196 39.7862C21.1408 39.7037 20.8702 39.7128 20.6822 39.7862C19.71 40.1348 18.7607 40.5659 17.7794 40.8823C15.0278 41.7629 12.2213 42.2536 9.31846 41.8409C4.7005 41.1896 1.54543 38.3599 0.408141 33.8194C0.233879 33.1315 0.13299 32.4298 0 31.7372C0 30.8613 0 29.9899 0 29.1139ZM23.9061 38.126C24.0253 38.1856 24.1033 38.2314 24.1858 38.2635C26.5796 39.1625 29.0468 39.6119 31.6011 39.4376C33.197 39.3276 34.7287 38.9469 36.0723 38.0251C38.3102 36.4841 39.2412 34.2368 39.4338 31.6318C39.6126 29.2423 39.2182 26.9262 38.4478 24.6697C38.3607 24.4221 38.2552 24.179 38.1406 23.8809C34.5315 29.8156 29.8081 34.5349 23.9061 38.1305V38.126Z" fill="white"/>
<g clip-path="url(#clip0_56_522)">
<path d="M20.6776 10.8054L19.8614 12.2225C19.7696 12.3831 19.7696 12.5711 19.8614 12.7316C19.9531 12.8921 20.1182 12.9884 20.3016 12.9884H20.696V20.111C20.696 20.3449 20.8886 20.5375 21.1225 20.5375C21.3563 20.5375 21.549 20.3449 21.549 20.111V12.9884H21.9433C22.1268 12.9884 22.2919 12.8921 22.3836 12.7316C22.4294 12.6536 22.4524 12.5619 22.4524 12.4748C22.4524 12.3876 22.4294 12.3005 22.3836 12.2179L21.5673 10.8008C21.4756 10.6403 21.3105 10.5439 21.1271 10.5439C20.9436 10.5439 20.7785 10.6403 20.6868 10.8008L20.6776 10.8054Z" fill="white"/>
<path d="M21.5627 31.4436L22.379 30.0264C22.4707 29.8659 22.4707 29.6778 22.379 29.5173C22.2873 29.3568 22.1222 29.2605 21.9388 29.2605H21.5444V22.138C21.5444 21.9041 21.3518 21.7114 21.1179 21.7114C20.884 21.7114 20.6914 21.9041 20.6914 22.138V29.2605H20.297C20.1136 29.2605 19.9485 29.3568 19.8568 29.5173C19.8109 29.5953 19.788 29.687 19.788 29.7742C19.788 29.8613 19.8109 29.9484 19.8568 30.031L20.6731 31.4482C20.7648 31.6087 20.9299 31.705 21.1133 31.705C21.2967 31.705 21.4618 31.6087 21.5535 31.4482L21.5627 31.4436Z" fill="white"/>
<path d="M10.8043 21.5645L12.2213 22.3808C12.3818 22.4725 12.5699 22.4725 12.7304 22.3808C12.8909 22.2891 12.9872 22.124 12.9872 21.9405V21.5461H20.109C20.3429 21.5461 20.5355 21.3535 20.5355 21.1196C20.5355 20.8857 20.3429 20.6931 20.109 20.6931H12.9872V20.2986C12.9872 20.1152 12.8909 19.9501 12.7304 19.8583C12.6524 19.8125 12.5607 19.7896 12.4736 19.7896C12.3864 19.7896 12.2993 19.8125 12.2167 19.8583L10.7997 20.6747C10.6392 20.7664 10.5429 20.9315 10.5429 21.115C10.5429 21.2984 10.6392 21.4636 10.7997 21.5553L10.8043 21.5645Z" fill="white"/>
<path d="M31.4407 20.6791L30.0236 19.8627C29.8631 19.771 29.6751 19.771 29.5146 19.8627C29.3541 19.9545 29.2578 20.1196 29.2578 20.303V20.6974H22.136C21.9021 20.6974 21.7095 20.8901 21.7095 21.124C21.7095 21.3579 21.9021 21.5505 22.136 21.5505H29.2578V21.9449C29.2578 22.1284 29.3541 22.2935 29.5146 22.3852C29.5926 22.4311 29.6843 22.454 29.7714 22.454C29.8585 22.454 29.9457 22.4311 30.0282 22.3852L31.4452 21.5688C31.6057 21.4771 31.7021 21.312 31.7021 21.1286C31.7021 20.9451 31.6057 20.78 31.4452 20.6883L31.4407 20.6791Z" fill="white"/>
</g>
<defs>
<clipPath id="clip0_56_522">
<rect width="21.15" height="21.152" fill="white" transform="translate(10.5475 10.5483)"/>
</clipPath>
</defs>
</svg>
