<svg width="123" height="39" viewBox="0 0 123 39" fill="none" xmlns="http://www.w3.org/2000/svg">
<path d="M48.9493 35.6926V35.6829C48.9493 34.7755 49.6729 34.2031 50.9243 34.1316L52.4877 34.0438V33.5982C52.4877 32.9478 52.0529 32.551 51.2928 32.551C50.5891 32.551 50.1509 32.8795 50.0447 33.3576L50.0348 33.4031H49.1551V33.3478C49.2381 32.4697 50.0215 31.7607 51.3027 31.7607C52.584 31.7607 53.4005 32.4437 53.4005 33.5104V37.2016H52.4877V36.3333H52.4678C52.1491 36.9187 51.4919 37.3057 50.765 37.3057C49.6796 37.3057 48.9527 36.665 48.9527 35.6926H48.9493ZM50.9675 36.5284C51.8272 36.5284 52.4877 35.9495 52.4877 35.1723V34.7365L51.0305 34.8243C50.3003 34.8666 49.8821 35.1853 49.8821 35.6829V35.6926C49.8821 36.2065 50.3136 36.5284 50.9675 36.5284Z" fill="#58595B"/>
<path d="M54.0844 31.8613H55.0436L56.5473 36.2518H56.5672L58.0775 31.8613H59.0268L57.0253 37.2014H56.0925L54.0844 31.8613Z" fill="#58595B"/>
<path d="M59.415 35.6926V35.6829C59.415 34.7755 60.1386 34.2031 61.39 34.1316L62.9534 34.0438V33.5982C62.9534 32.9478 62.5186 32.551 61.7585 32.551C61.0548 32.551 60.6166 32.8795 60.5104 33.3576L60.5005 33.4031H59.6208V33.3478C59.7038 32.4697 60.4872 31.7607 61.7684 31.7607C63.0497 31.7607 63.8662 32.4437 63.8662 33.5104V37.2016H62.9534V36.3333H62.9335C62.6148 36.9187 61.9576 37.3057 61.2307 37.3057C60.1453 37.3057 59.4184 36.665 59.4184 35.6926H59.415ZM61.4332 36.5284C62.2929 36.5284 62.9534 35.9495 62.9534 35.1723V34.7365L61.4962 34.8243C60.766 34.8666 60.3478 35.1853 60.3478 35.6829V35.6926C60.3478 36.2065 60.7793 36.5284 61.4332 36.5284Z" fill="#58595B"/>
<path d="M65.0214 31.8616H65.9342V32.6226H65.9541C66.2462 32.125 66.8038 31.7607 67.6304 31.7607C68.8253 31.7607 69.519 32.5217 69.519 33.7381V37.2049H68.6062V33.8974C68.6062 33.0291 68.1913 32.551 67.3515 32.551C66.5118 32.551 65.9309 33.1527 65.9309 34.06V37.2016H65.0181V31.8616H65.0214Z" fill="#58595B"/>
<path d="M70.953 35.8423V32.6031H70.1564V31.8649H70.953V30.4209H71.8957V31.8649H72.9313V32.6031H71.8957V35.839C71.8957 36.4081 72.1513 36.5675 72.6392 36.5675C72.7487 36.5675 72.855 36.5512 72.9313 36.548V37.2732C72.8185 37.2895 72.6226 37.309 72.4434 37.309C71.4409 37.309 70.9497 36.8667 70.9497 35.8455L70.953 35.8423Z" fill="#58595B"/>
<path d="M76.1078 31.8616H77.0206V32.7657H77.0405C77.2231 32.1477 77.6978 31.7607 78.3085 31.7607C78.4645 31.7607 78.6006 31.7868 78.6736 31.7965V32.6648C78.6006 32.6388 78.4081 32.6128 78.1857 32.6128C77.4787 32.6128 77.0173 33.0941 77.0173 33.9072V37.2049H76.1045V31.8648L76.1078 31.8616Z" fill="#58595B"/>
<path d="M78.8861 34.5514V34.5449C78.8861 32.8928 79.852 31.7578 81.3391 31.7578C82.8261 31.7578 83.7356 32.8408 83.7356 34.4441V34.7726H79.8089C79.8288 35.8718 80.4495 36.5125 81.4187 36.5125C82.1091 36.5125 82.5971 36.1743 82.7564 35.7157L82.7697 35.6702H83.6659L83.6559 35.7222C83.4767 36.6068 82.5871 37.3028 81.3988 37.3028C79.8321 37.3028 78.8861 36.2295 78.8861 34.5514ZM79.8255 34.0734H82.8062C82.7166 33.0359 82.1291 32.5481 81.3324 32.5481C80.5358 32.5481 79.9217 33.0782 79.8221 34.0734H79.8255Z" fill="#58595B"/>
<path d="M84.4293 35.6926V35.6829C84.4293 34.7755 85.1529 34.2031 86.4043 34.1316L87.9677 34.0438V33.5982C87.9677 32.9478 87.5329 32.551 86.7728 32.551C86.0691 32.551 85.6309 32.8795 85.5247 33.3576L85.5147 33.4031H84.6351V33.3478C84.7181 32.4697 85.5015 31.7607 86.7827 31.7607C88.064 31.7607 88.8805 32.4437 88.8805 33.5104V37.2016H87.9677V36.3333H87.9478C87.6291 36.9187 86.9719 37.3057 86.245 37.3057C85.1596 37.3057 84.4326 36.665 84.4326 35.6926H84.4293ZM86.4475 36.5284C87.3072 36.5284 87.9677 35.9495 87.9677 35.1723V34.7365L86.5105 34.8243C85.7803 34.8666 85.362 35.1853 85.362 35.6829V35.6926C85.362 36.2065 85.7936 36.5284 86.4475 36.5284Z" fill="#58595B"/>
<path d="M90.0854 29.79H90.9983V37.2017H90.0854V29.79Z" fill="#58595B"/>
<path d="M92.1699 30.3982C92.1699 30.086 92.4255 29.8389 92.7408 29.8389C93.0562 29.8389 93.3118 30.086 93.3118 30.3982C93.3118 30.7104 93.0595 30.9576 92.7408 30.9576C92.4222 30.9576 92.1699 30.7072 92.1699 30.3982ZM92.2861 31.8617H93.1989V37.2018H92.2861V31.8617Z" fill="#58595B"/>
<path d="M94.7158 35.8423V32.6031H93.9192V31.8649H94.7158V30.4209H95.6585V31.8649H96.6974V32.6031H95.6585V35.839C95.6585 36.4081 95.9141 36.5675 96.402 36.5675C96.5116 36.5675 96.6178 36.5512 96.6941 36.548V37.2732C96.5779 37.2895 96.3854 37.309 96.2062 37.309C95.2038 37.309 94.7125 36.8667 94.7125 35.8455L94.7158 35.8423Z" fill="#58595B"/>
<path d="M97.7066 38.9576V38.2291C97.7862 38.2453 97.8891 38.2583 97.9987 38.2583C98.5762 38.2583 98.8949 38.1152 99.114 37.5103L99.2235 37.2079L97.1987 31.8613H98.1746L99.6782 36.3103H99.6982L101.208 31.8613H102.168L100.04 37.5364C99.6517 38.5575 99.177 38.9998 98.1912 38.9998C98.012 38.9998 97.8194 38.9803 97.7033 38.9576H97.7066Z" fill="#58595B"/>
<path d="M46.7188 20.0501C46.7885 19.6273 46.845 19.2012 46.9246 18.7785C47.386 16.3849 48.3951 14.2059 49.6896 12.1473C51.0738 9.94882 52.7566 7.99752 54.715 6.27062C54.8412 6.16004 54.964 6.04947 55.1333 5.89987C54.871 5.86735 54.6553 5.84133 54.4429 5.81531C54.3034 5.79905 54.164 5.7893 54.0246 5.76653C53.5334 5.68198 53.2446 5.29822 53.3077 4.81365C53.3608 4.39412 53.7823 4.07215 54.2404 4.11768C54.9773 4.18598 55.7141 4.26728 56.4477 4.34533C56.7265 4.3746 57.0054 4.41363 57.2842 4.43965C57.8551 4.49168 58.197 4.8982 58.1339 5.45758C58.0211 6.43323 57.9115 7.40888 57.8086 8.38778C57.7522 8.90487 57.3738 9.23009 56.8593 9.18781C56.4079 9.15204 56.0859 8.77153 56.1158 8.28371C56.139 7.93898 56.1788 7.59425 56.2154 7.20399C56.0594 7.33733 55.9332 7.4414 55.8104 7.55197C52.9458 10.1179 50.6987 13.1132 49.288 16.6743C48.7137 18.1215 48.3652 19.6208 48.4084 21.1851C48.4382 22.2518 48.6905 23.2697 49.1917 24.2258C49.9352 25.6438 51.1136 26.5089 52.6936 26.8276C54.891 27.2699 57.012 26.9316 59.0799 26.1479C59.0866 26.1479 59.0899 26.1349 59.1131 26.0991C59.0368 26.0503 58.9571 25.995 58.8741 25.9462C55.7938 24.1055 53.1882 21.7509 51.014 18.9378C50.5726 18.3654 50.8315 17.6565 51.5252 17.5459C51.8837 17.4906 52.1559 17.65 52.3683 17.9296C53.5865 19.5167 54.9706 20.9477 56.5141 22.2323C57.8352 23.3282 59.2492 24.2876 60.7728 25.0974C61.0317 25.234 61.2275 25.2438 61.4897 25.1039C64.0788 23.738 66.3127 21.9363 68.291 19.8224C69.7116 18.3069 70.9431 16.658 71.919 14.8303C72.0119 14.658 72.0119 14.5246 71.919 14.349C70.5946 11.8481 68.7988 9.70491 66.7044 7.79588C64.7758 6.03971 62.6581 4.55022 60.2516 3.48351C58.3829 2.65421 56.4311 2.13386 54.3632 2.14362C53.4205 2.15012 52.4977 2.30623 51.6281 2.68673C49.8888 3.45424 48.9361 4.81365 48.571 6.6121C48.3486 7.71783 48.4183 8.82357 48.5777 9.92931C48.6507 10.4464 48.3519 10.8464 47.8673 10.9082C47.3727 10.9733 46.9678 10.6545 46.8914 10.1342C46.8284 9.6919 46.7719 9.24635 46.7122 8.80081C46.7122 8.35851 46.7122 7.91947 46.7122 7.47717C46.7686 7.11618 46.8217 6.75519 46.8815 6.3942C47.3396 3.56807 49.3477 1.42489 52.1824 0.748436C52.6969 0.624854 53.228 0.559811 53.7524 0.46875C54.2769 0.46875 54.8047 0.46875 55.3291 0.46875C55.3922 0.485011 55.4519 0.511028 55.515 0.517533C57.3506 0.676889 59.1098 1.13219 60.7761 1.8932C65.8347 4.20549 69.7913 7.7406 72.7322 12.3782C72.782 12.4562 72.8351 12.5375 72.8982 12.6351C73.6815 10.9472 73.9902 8.49835 73.7014 6.6934C73.2434 3.82174 71.0394 2.37777 68.4735 2.16963C67.5972 2.09809 66.7342 2.18589 65.8679 2.28671C65.3335 2.3485 64.9352 2.0363 64.892 1.56473C64.8422 1.07365 65.1708 0.702906 65.7119 0.634611C66.1202 0.582576 66.5251 0.524037 66.9334 0.46875C67.4578 0.46875 67.9856 0.46875 68.51 0.46875C68.9582 0.54355 69.4162 0.595585 69.8577 0.696402C72.1878 1.23301 73.9404 2.48835 74.8897 4.69006C75.5204 6.15354 75.6167 7.70157 75.4706 9.26261C75.3047 11.0513 74.8034 12.7522 74.0367 14.3848C73.9803 14.5051 73.9902 14.6872 74.0367 14.8173C74.2358 15.3507 74.4848 15.8678 74.674 16.4011C75.4142 18.502 75.8158 20.6452 75.3677 22.8664C74.8731 25.3153 73.499 27.1008 71.1223 28.0764C69.4129 28.7789 67.6304 28.8407 65.8181 28.574C64.2613 28.3431 62.7843 27.8618 61.3503 27.2341C61.2275 27.1788 61.0416 27.1853 60.9122 27.2341C60.245 27.4683 59.5944 27.7577 58.9173 27.9723C57.0286 28.5675 55.1001 28.8927 53.1052 28.6195C49.9352 28.1805 47.7677 26.278 46.9844 23.2209C46.8682 22.7624 46.7985 22.2908 46.7056 21.8257C46.7056 21.2371 46.7056 20.6485 46.7056 20.0598L46.7188 20.0501ZM63.1361 26.1121C63.2191 26.1511 63.2722 26.1836 63.3286 26.2032C64.9717 26.8081 66.6678 27.1105 68.4237 26.9934C69.5191 26.9186 70.5713 26.665 71.4941 26.0438C73.0309 25.0096 73.6682 23.4974 73.801 21.7412C73.9238 20.1346 73.6516 18.5768 73.1239 17.0581C73.0641 16.8922 72.9944 16.7263 72.9114 16.528C70.4319 20.5184 67.189 23.6925 63.1361 26.1153V26.1121Z" fill="#0060E4"/>
<path d="M0.93908 21.0968H1.20131C1.65273 21.0968 2.03445 21.4155 2.12075 21.8513C2.77465 25.2368 5.44669 27.3085 10.346 27.3085C15.2453 27.3085 18.0733 25.0547 18.0733 20.8854V20.8009C18.0733 16.7194 15.773 14.8884 10.4754 14.8884C10.0605 14.8884 9.48628 14.8982 9.00166 14.9112C8.47721 14.9242 8.0457 14.5079 8.0457 13.9941C8.0457 13.4802 8.47389 13.0672 8.99834 13.077L10.4323 13.103C14.7739 13.103 17.4194 11.1452 17.4194 7.74341V7.65886C17.4194 3.95789 14.9465 1.87325 10.2132 1.87325C5.47988 1.87325 3.24267 4.03594 2.6286 7.73366C2.55558 8.1792 2.16722 8.50767 1.70584 8.50767H1.51C0.935761 8.50767 0.484336 8.00359 0.583915 7.44747C1.42038 2.83589 4.84258 0 10.2564 0C16.2908 0 19.6765 2.93346 19.6765 7.6556C19.6765 9.87684 18.6276 11.7728 16.3904 12.9371C15.7199 13.2851 15.7166 14.238 16.3971 14.5632C19.0027 15.799 20.3271 17.991 20.3271 20.8431C20.3271 26.0759 16.5929 29.1785 10.2995 29.1785C4.44758 29.1785 0.809628 26.6418 0.0129955 22.1505C-0.0832642 21.5977 0.368161 21.0968 0.93908 21.0968Z" fill="#191919"/>
<path d="M24.0148 14.8429C24.0148 4.93354 28.0079 0 35.5195 0C40.93 0 44.2459 2.98874 44.6741 7.39218C44.7206 7.87675 44.3223 8.29303 43.8244 8.29303H43.3962C42.9547 8.29303 42.5929 7.95806 42.5498 7.52877C42.1315 3.27819 38.8819 1.87 35.473 1.87C29.2228 1.87 26.1391 5.90919 26.1391 14.5437C26.1391 14.5535 26.1391 14.5632 26.1391 14.573C26.1391 15.3763 27.198 15.721 27.6727 15.064C29.2659 12.8526 31.9745 11.5647 35.3436 11.5647C41.3349 11.5647 45.0658 14.9665 45.0658 20.3261C45.0658 25.6856 41.1158 29.1297 35.0813 29.1297C27.9183 29.1297 24.0115 24.1961 24.0115 14.8396L24.0148 14.8429ZM42.8983 20.4139V20.287C42.8983 15.9909 39.9906 13.3534 35.2573 13.3534C30.5239 13.3534 27.3142 16.2869 27.3142 20.3293V20.4139C27.3142 24.4531 30.5273 27.3052 35.0847 27.3052C39.9906 27.3052 42.8983 24.6677 42.8983 20.4139Z" fill="#191919"/>
<path d="M80.2072 0.0488281C80.7947 0.0488281 81.2694 0.513888 81.2694 1.08952V27.6727C81.2694 28.2484 80.7947 28.7134 80.2072 28.7134C79.6197 28.7134 79.145 28.2484 79.145 27.6727V1.08952C79.145 0.513888 79.6197 0.0488281 80.2072 0.0488281Z" fill="#191919"/>
<path d="M87.5661 2.21777H88.0441C88.6449 2.21777 89.1295 2.69259 89.1295 3.28123V3.79182C89.1295 4.38047 88.6449 4.85528 88.0441 4.85528H87.5661C86.9653 4.85528 86.4807 4.38047 86.4807 3.79182V3.28123C86.4807 2.69259 86.9653 2.21777 87.5661 2.21777ZM87.825 8.64081C88.4258 8.64081 88.9104 9.11562 88.9104 9.70427V27.653C88.9104 28.2416 88.4258 28.7164 87.825 28.7164C87.2242 28.7164 86.7396 28.2416 86.7396 27.653V9.70427C86.7396 9.11562 87.2242 8.64081 87.825 8.64081Z" fill="#191919"/>
<path d="M96.1166 24.1633V11.3173C96.1166 10.8229 95.7083 10.4229 95.2038 10.4229H93.0329C92.5284 10.4229 92.1201 10.0229 92.1201 9.52856C92.1201 9.03423 92.5284 8.63421 93.0329 8.63421H95.2038C95.7083 8.63421 96.1166 8.2342 96.1166 7.73987V4.69259C96.1166 4.41615 96.2493 4.15598 96.4717 3.98686L96.7339 3.78848C97.3347 3.33643 98.2011 3.75596 98.2011 4.4942V7.73987C98.2011 8.2342 98.6094 8.63421 99.1139 8.63421H102.5C103.004 8.63421 103.412 9.03423 103.412 9.52856C103.412 10.0229 103.004 10.4229 102.5 10.4229H99.0707C98.5662 10.4229 98.1579 10.8229 98.1579 11.3173V23.9064C98.1579 26.0333 98.8517 26.8821 100.979 26.9277H102.456C102.961 26.9277 103.369 27.3277 103.369 27.822C103.369 28.3163 102.961 28.7164 102.456 28.7164H100.677C97.2484 28.6741 96.1199 27.2269 96.1199 24.1666L96.1166 24.1633Z" fill="#191919"/>
<path d="M105.623 35.6047C105.623 35.0876 106.051 34.668 106.579 34.668H107.621C111.024 34.668 111.717 33.6469 113.822 28.1344C113.908 27.9068 113.901 27.6531 113.805 27.432L106.071 9.94507C105.799 9.32716 106.26 8.6377 106.947 8.6377H107.074C107.455 8.6377 107.804 8.86209 107.953 9.20682L114.014 23.2172C114.353 23.9977 115.491 23.9717 115.79 23.1749L121.021 9.2491C121.161 8.88161 121.516 8.6377 121.917 8.6377H122.044C122.711 8.6377 123.172 9.29138 122.937 9.90279L115.694 28.8402C113.48 34.4957 112.438 36.538 107.708 36.538H106.579C106.051 36.538 105.623 36.1185 105.623 35.6014V35.6047Z" fill="#191919"/>
</svg>
