<svg width="123" height="39" viewBox="0 0 123 39" fill="none" xmlns="http://www.w3.org/2000/svg">
<path d="M48.9492 35.6916V35.6819C48.9492 34.7745 49.6728 34.2021 50.9242 34.1306L52.4876 34.0428V33.5972C52.4876 32.9468 52.0528 32.55 51.2926 32.55C50.589 32.55 50.1508 32.8785 50.0446 33.3566L50.0346 33.4021H49.155V33.3468C49.238 32.4687 50.0214 31.7598 51.3026 31.7598C52.5839 31.7598 53.4004 32.4427 53.4004 33.5094V37.2006H52.4876V36.3323H52.4677C52.149 36.9177 51.4918 37.3047 50.7649 37.3047C49.6795 37.3047 48.9525 36.664 48.9525 35.6916H48.9492ZM50.9674 36.5274C51.8271 36.5274 52.4876 35.9486 52.4876 35.1713V34.7355L51.0304 34.8233C50.3002 34.8656 49.8819 35.1843 49.8819 35.6819V35.6916C49.8819 36.2055 50.3135 36.5274 50.9674 36.5274Z" fill="white"/>
<path d="M54.084 31.8613H55.0433L56.5469 36.2518H56.5668L58.0771 31.8613H59.0264L57.0249 37.2014H56.0922L54.084 31.8613Z" fill="white"/>
<path d="M59.415 35.6916V35.6819C59.415 34.7745 60.1386 34.2021 61.39 34.1306L62.9534 34.0428V33.5972C62.9534 32.9468 62.5186 32.55 61.7585 32.55C61.0548 32.55 60.6166 32.8785 60.5104 33.3566L60.5005 33.4021H59.6208V33.3468C59.7038 32.4687 60.4872 31.7598 61.7684 31.7598C63.0497 31.7598 63.8662 32.4427 63.8662 33.5094V37.2006H62.9534V36.3323H62.9335C62.6148 36.9177 61.9576 37.3047 61.2307 37.3047C60.1453 37.3047 59.4184 36.664 59.4184 35.6916H59.415ZM61.4332 36.5274C62.2929 36.5274 62.9534 35.9486 62.9534 35.1713V34.7355L61.4962 34.8233C60.766 34.8656 60.3478 35.1843 60.3478 35.6819V35.6916C60.3478 36.2055 60.7793 36.5274 61.4332 36.5274Z" fill="white"/>
<path d="M65.0214 31.8606H65.9342V32.6216H65.9541C66.2462 32.124 66.8038 31.7598 67.6304 31.7598C68.8253 31.7598 69.519 32.5208 69.519 33.7371V37.2039H68.6062V33.8964C68.6062 33.0281 68.1913 32.55 67.3515 32.55C66.5118 32.55 65.9309 33.1517 65.9309 34.059V37.2006H65.0181V31.8606H65.0214Z" fill="white"/>
<path d="M70.9529 35.8413V32.6021H70.1562V31.8639H70.9529V30.4199H71.8956V31.8639H72.9312V32.6021H71.8956V35.838C71.8956 36.4072 72.1511 36.5665 72.6391 36.5665C72.7486 36.5665 72.8548 36.5503 72.9312 36.547V37.2722C72.8183 37.2885 72.6225 37.308 72.4432 37.308C71.4408 37.308 70.9496 36.8657 70.9496 35.8445L70.9529 35.8413Z" fill="white"/>
<path d="M76.1078 31.8606H77.0206V32.7647H77.0405C77.2231 32.1468 77.6978 31.7598 78.3085 31.7598C78.4645 31.7598 78.6006 31.7858 78.6736 31.7955V32.6639C78.6006 32.6379 78.4081 32.6118 78.1857 32.6118C77.4787 32.6118 77.0173 33.0932 77.0173 33.9062V37.2039H76.1045V31.8638L76.1078 31.8606Z" fill="white"/>
<path d="M78.8862 34.5495V34.543C78.8862 32.8909 79.8521 31.7559 81.3392 31.7559C82.8262 31.7559 83.7357 32.8388 83.7357 34.4422V34.7706H79.809C79.8289 35.8699 80.4496 36.5105 81.4189 36.5105C82.1093 36.5105 82.5972 36.1723 82.7565 35.7137L82.7698 35.6682H83.666L83.6561 35.7203C83.4768 36.6048 82.5872 37.3008 81.3989 37.3008C79.8322 37.3008 78.8862 36.2276 78.8862 34.5495ZM79.8256 34.0714H82.8063C82.7167 33.034 82.1292 32.5461 81.3326 32.5461C80.5359 32.5461 79.9218 33.0762 79.8223 34.0714H79.8256Z" fill="white"/>
<path d="M84.4297 35.6916V35.6819C84.4297 34.7745 85.1533 34.2021 86.4047 34.1306L87.9681 34.0428V33.5972C87.9681 32.9468 87.5332 32.55 86.7731 32.55C86.0694 32.55 85.6313 32.8785 85.5251 33.3566L85.5151 33.4021H84.6355V33.3468C84.7185 32.4687 85.5018 31.7598 86.7831 31.7598C88.0643 31.7598 88.8809 32.4427 88.8809 33.5094V37.2006H87.9681V36.3323H87.9481C87.6295 36.9177 86.9723 37.3047 86.2453 37.3047C85.1599 37.3047 84.433 36.664 84.433 35.6916H84.4297ZM86.4478 36.5274C87.3075 36.5274 87.9681 35.9486 87.9681 35.1713V34.7355L86.5109 34.8233C85.7806 34.8656 85.3624 35.1843 85.3624 35.6819V35.6916C85.3624 36.2055 85.7939 36.5274 86.4478 36.5274Z" fill="white"/>
<path d="M90.085 29.7891H90.9978V37.2008H90.085V29.7891Z" fill="white"/>
<path d="M92.1699 30.3973C92.1699 30.0851 92.4255 29.8379 92.7408 29.8379C93.0562 29.8379 93.3118 30.0851 93.3118 30.3973C93.3118 30.7095 93.0595 30.9566 92.7408 30.9566C92.4222 30.9566 92.1699 30.7062 92.1699 30.3973ZM92.2861 31.8607H93.1989V37.2008H92.2861V31.8607Z" fill="white"/>
<path d="M94.7156 35.8413V32.6021H93.9189V31.8639H94.7156V30.4199H95.6583V31.8639H96.6972V32.6021H95.6583V35.838C95.6583 36.4072 95.9138 36.5665 96.4018 36.5665C96.5113 36.5665 96.6175 36.5503 96.6939 36.547V37.2722C96.5777 37.2885 96.3852 37.308 96.2059 37.308C95.2035 37.308 94.7123 36.8657 94.7123 35.8445L94.7156 35.8413Z" fill="white"/>
<path d="M97.7061 38.9576V38.2291C97.7858 38.2453 97.8887 38.2583 97.9982 38.2583C98.5758 38.2583 98.8944 38.1152 99.1135 37.5103L99.223 37.2079L97.1982 31.8613H98.1741L99.6778 36.3103H99.6977L101.208 31.8613H102.167L100.04 37.5364C99.6512 38.5575 99.1766 38.9998 98.1907 38.9998C98.0115 38.9998 97.819 38.9803 97.7028 38.9576H97.7061Z" fill="white"/>
<path d="M46.7188 20.0501C46.7885 19.6273 46.845 19.2012 46.9246 18.7785C47.386 16.3849 48.3951 14.2059 49.6896 12.1473C51.0738 9.94882 52.7566 7.99752 54.715 6.27062C54.8412 6.16004 54.964 6.04947 55.1333 5.89987C54.871 5.86735 54.6553 5.84133 54.4429 5.81531C54.3034 5.79905 54.164 5.7893 54.0246 5.76653C53.5334 5.68198 53.2446 5.29822 53.3077 4.81365C53.3608 4.39412 53.7823 4.07215 54.2404 4.11768C54.9773 4.18598 55.7141 4.26728 56.4477 4.34533C56.7265 4.3746 57.0054 4.41363 57.2842 4.43965C57.8551 4.49168 58.197 4.8982 58.1339 5.45758C58.0211 6.43323 57.9115 7.40888 57.8086 8.38778C57.7522 8.90487 57.3738 9.23009 56.8593 9.18781C56.4079 9.15204 56.0859 8.77154 56.1158 8.28371C56.139 7.93898 56.1788 7.59425 56.2154 7.20399C56.0594 7.33733 55.9332 7.4414 55.8104 7.55197C52.9458 10.1179 50.6987 13.1132 49.288 16.6743C48.7137 18.1215 48.3652 19.6208 48.4084 21.1851C48.4382 22.2518 48.6905 23.2697 49.1917 24.2258C49.9352 25.6438 51.1136 26.5089 52.6936 26.8276C54.891 27.2699 57.012 26.9316 59.0799 26.1479C59.0866 26.1479 59.0899 26.1349 59.1131 26.0991C59.0368 26.0503 58.9571 25.995 58.8741 25.9462C55.7938 24.1055 53.1882 21.7509 51.014 18.9378C50.5726 18.3654 50.8315 17.6565 51.5252 17.5459C51.8837 17.4906 52.1559 17.65 52.3683 17.9296C53.5865 19.5167 54.9706 20.9477 56.5141 22.2323C57.8352 23.3282 59.2492 24.2876 60.7728 25.0974C61.0317 25.234 61.2275 25.2438 61.4897 25.1039C64.0788 23.738 66.3127 21.9363 68.291 19.8224C69.7116 18.3069 70.9431 16.658 71.919 14.8303C72.0119 14.658 72.0119 14.5246 71.919 14.349C70.5946 11.8481 68.7988 9.70491 66.7044 7.79588C64.7758 6.03971 62.6581 4.55022 60.2516 3.48351C58.3829 2.65421 56.4311 2.13386 54.3632 2.14362C53.4205 2.15012 52.4977 2.30623 51.6281 2.68673C49.8888 3.45424 48.9361 4.81365 48.571 6.6121C48.3486 7.71783 48.4183 8.82357 48.5777 9.92931C48.6507 10.4464 48.3519 10.8464 47.8673 10.9082C47.3727 10.9733 46.9678 10.6545 46.8914 10.1342C46.8284 9.6919 46.7719 9.24635 46.7122 8.8008C46.7122 8.35851 46.7122 7.91947 46.7122 7.47717C46.7686 7.11618 46.8217 6.75519 46.8815 6.3942C47.3396 3.56807 49.3477 1.42489 52.1824 0.748436C52.6969 0.624854 53.228 0.559811 53.7524 0.46875C54.2769 0.46875 54.8047 0.46875 55.3291 0.46875C55.3922 0.485011 55.4519 0.511028 55.515 0.517533C57.3506 0.676889 59.1098 1.13219 60.7761 1.8932C65.8347 4.20549 69.7913 7.7406 72.7322 12.3782C72.782 12.4562 72.8351 12.5375 72.8982 12.6351C73.6815 10.9472 73.9902 8.49835 73.7014 6.6934C73.2434 3.82174 71.0394 2.37777 68.4735 2.16963C67.5972 2.09809 66.7342 2.18589 65.8679 2.28671C65.3335 2.3485 64.9352 2.0363 64.892 1.56473C64.8422 1.07365 65.1708 0.702906 65.7119 0.634611C66.1202 0.582576 66.5251 0.524037 66.9334 0.46875C67.4578 0.46875 67.9856 0.46875 68.51 0.46875C68.9582 0.54355 69.4162 0.595585 69.8577 0.696402C72.1878 1.23301 73.9404 2.48835 74.8897 4.69006C75.5204 6.15354 75.6167 7.70157 75.4706 9.26261C75.3047 11.0513 74.8034 12.7522 74.0367 14.3848C73.9803 14.5051 73.9902 14.6872 74.0367 14.8173C74.2358 15.3507 74.4848 15.8678 74.674 16.4011C75.4142 18.502 75.8158 20.6452 75.3677 22.8664C74.8731 25.3153 73.499 27.1008 71.1223 28.0764C69.4129 28.7789 67.6304 28.8407 65.8181 28.574C64.2613 28.3431 62.7843 27.8618 61.3503 27.2341C61.2275 27.1788 61.0416 27.1853 60.9122 27.2341C60.245 27.4682 59.5944 27.7577 58.9173 27.9723C57.0286 28.5675 55.1001 28.8927 53.1052 28.6195C49.9352 28.1805 47.7677 26.278 46.9844 23.2209C46.8682 22.7624 46.7985 22.2908 46.7056 21.8257C46.7056 21.2371 46.7056 20.6485 46.7056 20.0598L46.7188 20.0501ZM63.1361 26.1121C63.2191 26.1511 63.2722 26.1836 63.3286 26.2032C64.9717 26.8081 66.6678 27.1105 68.4237 26.9934C69.5191 26.9186 70.5713 26.665 71.4941 26.0438C73.0309 25.0096 73.6682 23.4974 73.801 21.7412C73.9238 20.1346 73.6516 18.5768 73.1239 17.0581C73.0641 16.8922 72.9944 16.7263 72.9114 16.528C70.4319 20.5184 67.189 23.6925 63.1361 26.1153V26.1121Z" fill="#0060E4"/>
<path d="M0.93908 21.0968H1.2013C1.65273 21.0968 2.03445 21.4155 2.12075 21.8513C2.77465 25.2368 5.44669 27.3085 10.346 27.3085C15.2453 27.3085 18.0733 25.0547 18.0733 20.8854V20.8009C18.0733 16.7194 15.773 14.8884 10.4754 14.8884C10.0605 14.8884 9.48628 14.8982 9.00166 14.9112C8.47721 14.9242 8.0457 14.5079 8.0457 13.9941C8.0457 13.4802 8.47389 13.0672 8.99834 13.077L10.4323 13.103C14.7739 13.103 17.4194 11.1452 17.4194 7.74341V7.65886C17.4194 3.95789 14.9465 1.87325 10.2132 1.87325C5.47988 1.87325 3.24267 4.03594 2.6286 7.73366C2.55558 8.1792 2.16722 8.50767 1.70584 8.50767H1.51C0.935761 8.50767 0.484336 8.00359 0.583915 7.44747C1.42038 2.83589 4.84258 0 10.2564 0C16.2908 0 19.6765 2.93346 19.6765 7.6556C19.6765 9.87684 18.6276 11.7728 16.3904 12.9371C15.7199 13.2851 15.7166 14.238 16.3971 14.5632C19.0027 15.799 20.3271 17.991 20.3271 20.8431C20.3271 26.0759 16.5929 29.1785 10.2995 29.1785C4.44758 29.1785 0.809628 26.6418 0.0129955 22.1505C-0.0832642 21.5976 0.368161 21.0968 0.93908 21.0968Z" fill="white"/>
<path d="M24.015 14.8429C24.015 4.93354 28.0082 0 35.5197 0C40.9302 0 44.2462 2.98874 44.6744 7.39218C44.7208 7.87675 44.3225 8.29303 43.8246 8.29303H43.3964C42.955 8.29303 42.5932 7.95806 42.55 7.52877C42.1318 3.27819 38.8822 1.87 35.4733 1.87C29.223 1.87 26.1394 5.90919 26.1394 14.5437C26.1394 14.5535 26.1394 14.5632 26.1394 14.573C26.1394 15.3763 27.1982 15.721 27.6729 15.064C29.2662 12.8526 31.9747 11.5647 35.3438 11.5647C41.3351 11.5647 45.066 14.9665 45.066 20.3261C45.066 25.6856 41.1161 29.1297 35.0816 29.1297C27.9185 29.1297 24.0117 24.1961 24.0117 14.8396L24.015 14.8429ZM42.8985 20.4139V20.287C42.8985 15.9909 39.9908 13.3534 35.2575 13.3534C30.5242 13.3534 27.3144 16.2869 27.3144 20.3293V20.4139C27.3144 24.4531 30.5275 27.3052 35.0849 27.3052C39.9908 27.3052 42.8985 24.6677 42.8985 20.4139Z" fill="white"/>
<path d="M80.2072 0.0488281C80.7947 0.0488281 81.2694 0.513888 81.2694 1.08952V27.6727C81.2694 28.2484 80.7947 28.7134 80.2072 28.7134C79.6197 28.7134 79.145 28.2484 79.145 27.6727V1.08952C79.145 0.513888 79.6197 0.0488281 80.2072 0.0488281Z" fill="white"/>
<path d="M87.5659 2.21875H88.0439C88.6446 2.21875 89.1293 2.69357 89.1293 3.28221V3.7928C89.1293 4.38144 88.6446 4.85626 88.0439 4.85626H87.5659C86.9651 4.85626 86.4805 4.38144 86.4805 3.7928V3.28221C86.4805 2.69357 86.9651 2.21875 87.5659 2.21875ZM87.8248 8.64178C88.4256 8.64178 88.9102 9.1166 88.9102 9.70524V27.654C88.9102 28.2426 88.4256 28.7174 87.8248 28.7174C87.224 28.7174 86.7394 28.2426 86.7394 27.654V9.70524C86.7394 9.1166 87.224 8.64178 87.8248 8.64178Z" fill="white"/>
<path d="M96.1166 24.1633V11.3173C96.1166 10.8229 95.7083 10.4229 95.2038 10.4229H93.0329C92.5284 10.4229 92.1201 10.0229 92.1201 9.52856C92.1201 9.03423 92.5284 8.63421 93.0329 8.63421H95.2038C95.7083 8.63421 96.1166 8.2342 96.1166 7.73987V4.69259C96.1166 4.41615 96.2493 4.15598 96.4717 3.98686L96.7339 3.78848C97.3347 3.33643 98.2011 3.75596 98.2011 4.4942V7.73987C98.2011 8.2342 98.6094 8.63421 99.1139 8.63421H102.5C103.004 8.63421 103.412 9.03423 103.412 9.52856C103.412 10.0229 103.004 10.4229 102.5 10.4229H99.0707C98.5662 10.4229 98.1579 10.8229 98.1579 11.3173V23.9064C98.1579 26.0333 98.8517 26.8821 100.979 26.9277H102.456C102.961 26.9277 103.369 27.3277 103.369 27.822C103.369 28.3163 102.961 28.7163 102.456 28.7163H100.677C97.2484 28.6741 96.1199 27.2269 96.1199 24.1666L96.1166 24.1633Z" fill="white"/>
<path d="M105.623 35.6057C105.623 35.0886 106.051 34.669 106.579 34.669H107.621C111.024 34.669 111.717 33.6478 113.822 28.1354C113.908 27.9078 113.901 27.6541 113.805 27.433L106.071 9.94604C105.799 9.32813 106.26 8.63867 106.947 8.63867H107.074C107.455 8.63867 107.804 8.86307 107.953 9.2078L114.014 23.2181C114.353 23.9987 115.491 23.9726 115.79 23.1759L121.021 9.25008C121.161 8.88258 121.516 8.63867 121.917 8.63867H122.044C122.711 8.63867 123.172 9.29236 122.937 9.90377L115.694 28.8411C113.48 34.4967 112.438 36.539 107.708 36.539H106.579C106.051 36.539 105.623 36.1195 105.623 35.6024V35.6057Z" fill="white"/>
</svg>
