<svg width="12" height="22" viewBox="0 0 12 22" fill="none" xmlns="http://www.w3.org/2000/svg">
<g clip-path="url(#clip0_22_558)">
<path d="M7.75884 22H3.64347C3.44211 21.8755 3.34772 21.7012 3.34143 21.4646C3.34143 21.2965 3.32255 21.1285 3.32255 20.9542C3.32255 18.2524 3.32255 15.5569 3.32255 12.8551C3.32255 12.4816 3.30367 12.4629 2.92612 12.4629C2.171 12.4629 1.4096 12.4629 0.654486 12.4629C0.188833 12.4629 0.0126403 12.2886 0.00634766 11.828C0.00634766 10.7385 0.00634766 9.64912 0.00634766 8.55348C0.00634766 8.08659 0.182541 7.92473 0.648194 7.91851C1.39701 7.91851 2.14583 7.91851 2.89465 7.91851C3.32255 7.91851 3.32255 7.91851 3.32884 7.48274C3.33514 6.4618 3.29738 5.44708 3.41694 4.43237C3.70011 1.94227 5.65082 0.155631 8.18044 0.0311262C9.21872 -0.0186757 10.257 0.0124505 11.2953 0C11.3771 0 11.4589 0.00622524 11.5344 0.0186757C11.8616 0.0684776 11.9938 0.211658 11.9938 0.535371C11.9938 1.60611 12.0001 2.68308 11.9938 3.75382C11.9938 4.10866 11.8302 4.27674 11.4652 4.29542C11.1757 4.31409 10.8863 4.29542 10.5968 4.30787C10.0556 4.32032 9.51448 4.27674 8.97331 4.34522C8.36922 4.42615 8.09864 4.71873 8.08605 5.32258C8.07347 6.05716 8.08605 6.79174 8.07347 7.52009C8.07347 7.794 8.17415 7.8687 8.43844 7.8687C9.38233 7.85625 10.3325 7.86248 11.2764 7.8687C11.698 7.8687 11.8742 8.04301 11.8742 8.45388C11.8742 9.59932 11.8742 10.7448 11.8742 11.884C11.8742 12.245 11.7358 12.382 11.3708 12.4069C10.4143 12.4692 9.45784 12.4194 8.50137 12.4318C8.08605 12.4318 8.07347 12.4443 8.07347 12.8551C8.07347 15.2269 8.07347 17.5925 8.07347 19.9643C8.07347 20.4126 8.07347 20.8608 8.07347 21.3028C8.07347 21.5767 8.02313 21.8381 7.73996 21.9875L7.75884 22Z" fill="white"/>
</g>
<defs>
<clipPath id="clip0_22_558">
<rect width="12" height="22" fill="white"/>
</clipPath>
</defs>
</svg>
