<svg width="81" height="81" viewBox="0 0 81 81" fill="none" xmlns="http://www.w3.org/2000/svg">
<path d="M0 56.1549C0.193673 54.9411 0.351773 53.7194 0.581018 52.5096C1.87349 45.6419 4.70743 39.403 8.34768 33.4961C12.229 27.1938 16.9641 21.6032 22.4621 16.6531C22.8138 16.3368 23.1617 16.0205 23.632 15.5896C22.8929 15.4947 22.2921 15.4196 21.6913 15.3445C21.3 15.297 20.9048 15.2693 20.5174 15.2021C19.138 14.9609 18.3277 13.8579 18.5056 12.474C18.6598 11.2761 19.8336 10.3509 21.1261 10.4774C23.1933 10.6751 25.2604 10.9123 27.3276 11.1337C28.1141 11.2168 28.8928 11.3275 29.6793 11.3986C31.284 11.5449 32.2406 12.7152 32.0627 14.3165C31.7504 17.1157 31.4421 19.915 31.1457 22.7142C30.9876 24.1969 29.9283 25.126 28.4778 25.0113C27.209 24.9125 26.3078 23.8134 26.3908 22.4216C26.4501 21.4332 26.5687 20.4448 26.6754 19.3259C26.2407 19.7094 25.8849 20.0099 25.5371 20.3262C17.4938 27.688 11.1777 36.2676 7.21727 46.4801C5.6086 50.6316 4.62443 54.9253 4.74695 59.4128C4.82996 62.477 5.53745 65.3869 6.9485 68.1348C9.03937 72.2032 12.3437 74.6782 16.7823 75.5915C22.9561 76.8607 28.9125 75.888 34.7188 73.6463C34.7385 73.6384 34.7464 73.6067 34.8136 73.5C34.5962 73.3576 34.3709 73.2035 34.1417 73.0611C25.4936 67.7829 18.1776 61.0339 12.067 52.9643C10.8259 51.3274 11.5532 49.2873 13.5017 48.9749C14.5096 48.8128 15.2725 49.2754 15.8693 50.0741C19.2882 54.6209 23.1735 58.7288 27.5134 62.4098C31.2208 65.553 35.197 68.3008 39.4697 70.6217C40.1969 71.017 40.7424 71.0408 41.4854 70.6414C48.758 66.7272 55.0267 61.5597 60.5879 55.4947C64.572 51.1495 68.0344 46.4208 70.7735 41.1821C71.0343 40.684 71.0343 40.3004 70.7735 39.7983C67.0542 32.6262 62.0108 26.4821 56.1295 21.0062C50.7185 15.9691 44.766 11.7031 38.0072 8.63892C32.7544 6.25877 27.2802 4.76821 21.47 4.79984C18.8218 4.81565 16.229 5.26242 13.7942 6.35761C8.90894 8.55589 6.22914 12.4582 5.21335 17.6139C4.58885 20.7808 4.78253 23.9517 5.22916 27.1226C5.43864 28.6053 4.59281 29.7479 3.2371 29.9298C1.84582 30.1156 0.707498 29.2023 0.498015 27.7117C0.320153 26.4347 0.166005 25.1576 0 23.8845C0 22.6193 0 21.3541 0 20.0889C0.1581 19.0531 0.312248 18.0172 0.4743 16.9813C1.76677 8.88405 7.39513 2.73599 15.3594 0.798655C16.806 0.446772 18.2961 0.260947 19.7665 0C21.2407 0 22.719 0 24.1933 0C24.3672 0.0474449 24.5411 0.122566 24.7189 0.138381C29.873 0.593061 34.8136 1.90175 39.4894 4.08421C53.6987 10.7146 64.8013 20.8481 73.0659 34.1405C73.2082 34.3698 73.3545 34.5913 73.5363 34.8799C75.7378 30.0445 76.5995 23.0187 75.7892 17.8432C74.5007 9.61549 68.315 5.46802 61.1096 4.87891C58.6472 4.67727 56.2243 4.93031 53.7935 5.21103C52.2916 5.38499 51.177 4.49145 51.0505 3.14322C50.9161 1.73174 51.8291 0.676089 53.3509 0.478402C54.4852 0.32816 55.6275 0.162103 56.7698 0C58.2441 0 59.7223 0 61.1966 0C62.4574 0.213502 63.738 0.363744 64.9831 0.65632C71.5284 2.19432 76.4493 5.79618 79.1133 12.1063C80.884 16.3052 81.1567 20.7374 80.7496 25.2169C80.2832 30.341 78.8761 35.2239 76.7259 39.8972C76.5678 40.2411 76.5995 40.767 76.7338 41.1347C77.2951 42.6648 77.9907 44.1435 78.5243 45.6815C80.6033 51.703 81.7298 57.8511 80.4729 64.2127C79.0856 71.2305 75.22 76.3546 68.5482 79.1538C63.7499 81.1663 58.7381 81.3482 53.6591 80.5811C49.2877 79.9209 45.1415 78.537 41.1179 76.7341C40.77 76.5799 40.2523 76.5918 39.8847 76.7262C38.0072 77.4023 36.1851 78.2326 34.2879 78.8415C28.9797 80.5416 23.5727 81.4826 17.972 80.6918C9.07099 79.4345 2.98414 73.9784 0.786548 65.2169C0.450585 63.9003 0.256913 62.5481 0 61.2157C0 59.5275 0 57.8392 0 56.1549ZM46.098 73.5395C46.3273 73.6542 46.4775 73.7412 46.6395 73.8044C51.2521 75.5401 56.0148 76.4099 60.9436 76.0699C64.0187 75.8564 66.9791 75.125 69.568 73.3458C73.8841 70.3765 75.6746 66.0432 76.0501 61.0101C76.39 56.404 75.6311 51.9363 74.145 47.5832C73.9829 47.1048 73.7774 46.6383 73.5521 46.061C66.5917 57.5032 57.4852 66.6047 46.098 73.5435V73.5395Z" fill="#0060E4"/>
</svg>
