<svg width="22" height="22" viewBox="0 0 22 22" fill="#fffff" xmlns="http://www.w3.org/2000/svg">
<g clip-path="url(#clip0_22_561)">
<path d="M14.9467 22.0001H7.11999C7.03472 21.9879 6.94945 21.9757 6.86418 21.9757C6.2551 21.9696 5.64602 21.921 5.04912 21.7993C2.68588 21.3249 1.09618 19.9807 0.383557 17.6572C0.079017 16.6597 0.0363813 15.6257 0.0241997 14.5978C-0.0123451 12.2317 -0.00625432 9.85961 0.0241997 7.49356C0.0363813 6.66635 0.0607446 5.83307 0.231287 5.01803C0.724643 2.62157 2.10726 1.03406 4.48267 0.346752C5.47547 0.0608796 6.50482 0.0243853 7.52808 0.0122205C9.84258 -0.00602664 12.1571 -0.00602664 14.4716 0.0122205C15.3243 0.0183029 16.177 0.0487149 17.0176 0.219022C19.4417 0.711695 21.0436 2.10456 21.7257 4.50711C21.8841 5.0606 21.9389 5.62627 22.0059 6.19801V15.6865C21.9572 16.1062 21.9267 16.5259 21.8476 16.9395C21.5857 18.3263 20.9888 19.5184 19.9046 20.4551C18.7961 21.4101 17.4744 21.8176 16.043 21.9271C15.6776 21.9575 15.3182 21.9757 14.9528 22.0001H14.9467ZM11.0242 20.005C12.3094 20.0233 13.5884 19.9807 14.8736 19.9625C15.4888 19.9503 16.1039 19.926 16.713 19.7982C18.2905 19.4637 19.3321 18.5513 19.7645 16.976C19.9655 16.2279 19.996 15.4615 20.0021 14.7012C20.0264 12.8886 20.0264 11.0822 20.0203 9.26962C20.0203 8.05922 20.0386 6.84883 19.8802 5.6506C19.6366 3.82588 18.5281 2.63981 16.7252 2.25662C15.8725 2.07415 15.0015 2.07415 14.1366 2.06807C12.0718 2.04374 10.007 2.04982 7.94834 2.06807C7.13217 2.07415 6.31601 2.0924 5.50593 2.22621C3.78832 2.51208 2.65543 3.5765 2.27171 5.27349C2.09507 6.03987 2.08289 6.8245 2.07071 7.59696C2.05244 9.88394 2.05244 12.177 2.07071 14.464C2.07071 15.1817 2.09507 15.9055 2.23516 16.6232C2.55189 18.2533 3.48378 19.3177 5.11003 19.7435C5.7922 19.9199 6.49873 19.9503 7.19917 19.9685C8.47215 19.9929 9.75122 20.0354 11.0242 20.0111V20.005Z" fill="white"/>
<path d="M11.0182 16.6839C7.89971 16.6839 5.34766 14.1172 5.34766 10.9969C5.34766 7.88273 7.91798 5.32812 11.0365 5.32812C14.1671 5.32812 16.7314 7.90098 16.7192 11.0273C16.707 14.1476 14.1428 16.69 11.0182 16.6839ZM7.39417 11.003C7.39417 13.0163 9.01432 14.6403 11.0243 14.6403C13.0403 14.6403 14.6727 13.0223 14.6788 11.0212C14.6788 9.00189 13.0525 7.36573 11.0365 7.36573C9.02651 7.36573 7.40026 8.98972 7.40026 10.9969L7.39417 11.003Z" fill="white"/>
<path d="M16.9076 6.47157C16.1584 6.47157 15.5737 5.88766 15.5737 5.13953C15.5737 4.39748 16.1645 3.8014 16.9015 3.78924C17.6202 3.77707 18.2476 4.39748 18.2598 5.12736C18.2659 5.86333 17.6568 6.47157 16.9076 6.47157Z" fill="white"/>
</g>
<defs>
<clipPath id="clip0_22_561">
<rect width="22" height="22" fill="white"/>
</clipPath>
</defs>
</svg>
