<svg width="25" height="25" viewBox="0 0 25 25" fill="none" xmlns="http://www.w3.org/2000/svg">
<path d="M0 17.2403C0.0594613 16.8677 0.108001 16.4926 0.178384 16.1212C0.575197 14.0127 1.44527 12.0972 2.5629 10.2837C3.75455 8.34887 5.20832 6.63248 6.89629 5.11274C7.00429 5.01563 7.11108 4.91852 7.25549 4.78621C7.02856 4.75708 6.84411 4.73402 6.65966 4.71096C6.53953 4.69639 6.41818 4.68789 6.29925 4.66726C5.87574 4.59321 5.62698 4.25455 5.68158 3.8297C5.72891 3.4619 6.08932 3.17786 6.48613 3.2167C7.12079 3.2774 7.75545 3.35023 8.39011 3.4182C8.63159 3.44369 8.87065 3.47768 9.11214 3.49953C9.60481 3.54444 9.89848 3.90374 9.84387 4.39535C9.74801 5.25476 9.65336 6.11417 9.56234 6.97357C9.5138 7.42877 9.18859 7.71402 8.74323 7.67882C8.3537 7.64847 8.07702 7.31102 8.10251 6.88375C8.12071 6.58028 8.15711 6.27682 8.18988 5.9333C8.05639 6.05105 7.94718 6.1433 7.84039 6.24041C5.37093 8.5006 3.43176 11.1347 2.21584 14.27C1.72195 15.5446 1.41979 16.8628 1.45741 18.2405C1.48289 19.1813 1.70011 20.0747 2.13332 20.9183C2.77526 22.1673 3.78975 22.9272 5.1525 23.2076C7.04798 23.5973 8.87672 23.2987 10.6593 22.6104C10.6654 22.608 10.6678 22.5983 10.6885 22.5655C10.6217 22.5218 10.5526 22.4744 10.4822 22.4307C7.82704 20.8103 5.58086 18.7382 3.7048 16.2607C3.32376 15.7582 3.54705 15.1319 4.1453 15.036C4.45474 14.9862 4.68895 15.1282 4.87218 15.3734C5.92186 16.7693 7.11472 18.0305 8.44714 19.1606C9.5854 20.1256 10.8062 20.9693 12.118 21.6818C12.3412 21.8032 12.5087 21.8105 12.7368 21.6879C14.9697 20.4862 16.8943 18.8997 18.6017 17.0376C19.8249 15.7036 20.8879 14.2518 21.7288 12.6435C21.8089 12.4905 21.8089 12.3728 21.7288 12.2186C20.5869 10.0167 19.0385 8.13037 17.2328 6.44919C15.5716 4.90274 13.744 3.593 11.669 2.65226C10.0562 1.92153 8.37554 1.4639 6.59171 1.47361C5.77866 1.47847 4.98261 1.61564 4.2351 1.95187C2.73522 2.62677 1.91247 3.82484 1.6006 5.4077C1.40887 6.38 1.46833 7.35351 1.60545 8.32702C1.66977 8.78221 1.41008 9.13301 0.993853 9.18885C0.566702 9.2459 0.217216 8.9655 0.1529 8.50788C0.0982931 8.11581 0.0509668 7.72373 0 7.33287C0 6.94444 0 6.55601 0 6.16758C0.0485398 5.84955 0.0958661 5.53152 0.145619 5.21349C0.542432 2.72752 2.27045 0.839985 4.71564 0.245198C5.15978 0.137165 5.61727 0.0801142 6.06869 0C6.52132 0 6.97517 0 7.4278 0C7.4812 0.0145662 7.53459 0.0376294 7.5892 0.0424848C9.1716 0.182078 10.6885 0.583862 12.124 1.25391C16.4865 3.28954 19.8953 6.40063 22.4327 10.4816C22.4764 10.552 22.5213 10.62 22.5771 10.7086C23.253 9.22405 23.5175 7.06704 23.2688 5.47811C22.8732 2.95209 20.9741 1.67876 18.7619 1.49789C18.0058 1.43599 17.262 1.51367 16.5157 1.59986C16.0545 1.65326 15.7123 1.37893 15.6735 0.965011C15.6322 0.531667 15.9126 0.207568 16.3798 0.146876C16.728 0.10075 17.0787 0.0497679 17.4294 0C17.8821 0 18.3359 0 18.7885 0C19.1757 0.0655479 19.5688 0.111674 19.9511 0.201499C21.9606 0.673687 23.4714 1.77951 24.2893 3.71681C24.833 5.00592 24.9167 6.36665 24.7917 7.74194C24.6485 9.31509 24.2165 10.8142 23.5564 12.249C23.5078 12.3546 23.5175 12.516 23.5588 12.6289C23.7311 13.0987 23.9447 13.5526 24.1085 14.0248C24.7468 15.8735 25.0927 17.7611 24.7068 19.7142C24.2808 21.8687 23.094 23.4419 21.0456 24.3013C19.5725 24.9191 18.0338 24.975 16.4744 24.7395C15.1323 24.5368 13.8593 24.1119 12.624 23.5584C12.5172 23.5111 12.3582 23.5147 12.2454 23.556C11.669 23.7636 11.1095 24.0185 10.5271 24.2054C8.89735 24.7274 7.23729 25.0163 5.51776 24.7735C2.78497 24.3875 0.916189 22.7124 0.241486 20.0225C0.138338 19.6183 0.0788772 19.2031 0 18.7941C0 18.2757 0 17.7574 0 17.2403ZM14.153 22.5776C14.2234 22.6128 14.2695 22.6395 14.3192 22.659C15.7354 23.1918 17.1977 23.4589 18.7109 23.3545C19.655 23.2889 20.5639 23.0644 21.3587 22.5181C22.6839 21.6065 23.2336 20.2762 23.3489 18.7309C23.4532 17.3168 23.2202 15.9451 22.764 14.6087C22.7142 14.4618 22.6511 14.3186 22.5819 14.1414C20.445 17.6542 17.6491 20.4485 14.153 22.5788V22.5776Z" fill="#0060E4"/>
</svg>
