<svg width="198" height="197" viewBox="0 0 198 197" fill="none" xmlns="http://www.w3.org/2000/svg">
<path d="M0.0241757 136.448C0.485882 133.484 0.874729 130.52 1.43364 127.581C4.59268 110.893 11.4697 95.7101 20.3394 81.3536C29.7922 66.0254 41.3106 52.4463 54.6758 40.3975C55.5263 39.6201 56.3767 38.8671 57.5188 37.8225C55.7206 37.6039 54.2626 37.4095 52.8046 37.2395C51.8569 37.118 50.8849 37.0452 49.9372 36.8994C46.5837 36.3164 44.6154 33.62 45.0528 30.2677C45.4173 27.3527 48.2847 25.1178 51.4194 25.4093C56.4496 25.8952 61.4798 26.4539 66.51 27.0126C68.4297 27.2069 70.3251 27.4984 72.2449 27.6685C76.1572 28.0328 78.4901 30.875 78.0527 34.7617C77.2994 41.5635 76.5459 48.3652 75.8169 55.1912C75.4281 58.8107 72.8523 61.0456 69.3288 60.7784C66.2426 60.5354 64.0557 57.8633 64.2501 54.4868C64.3959 52.0819 64.6874 49.6769 64.9304 46.9562C63.8612 47.8793 63.0107 48.6081 62.1601 49.3854C42.5984 67.2886 27.2164 88.1554 17.5934 112.982C13.6811 123.063 11.2753 133.508 11.5912 144.44C11.7856 151.897 13.5109 158.966 16.9373 165.647C22.016 175.533 30.0594 181.558 40.873 183.768C55.8906 186.853 70.398 184.497 84.5165 179.031C84.5651 179.031 84.5893 178.934 84.7594 178.691C84.2248 178.351 83.6903 177.963 83.1313 177.622C62.0873 164.796 44.2995 148.375 29.4277 128.747C26.4144 124.763 28.1884 119.808 32.9269 119.055C35.3813 118.666 37.2281 119.783 38.6861 121.727C46.9968 132.78 56.4496 142.764 67.0202 151.727C76.0356 159.379 85.7073 166.06 96.1078 171.695C97.8817 172.667 99.1938 172.715 101.016 171.744C118.707 162.221 133.968 149.663 147.503 134.917C157.199 124.35 165.607 112.86 172.289 100.107C172.921 98.8924 172.921 97.9693 172.289 96.7547C163.25 79.3131 150.978 64.3736 136.665 51.0616C123.494 38.8185 109.011 28.4458 92.5599 20.9882C79.7779 15.2067 66.4613 11.5872 52.3185 11.6601C45.879 11.6844 39.5609 12.7775 33.6316 15.4496C21.7487 20.7938 15.2363 30.292 12.7577 42.8267C11.2268 50.5272 11.7126 58.2277 12.7819 65.9525C13.2922 69.5477 11.2267 72.3413 7.94611 72.7786C4.56836 73.2401 1.79815 71.0053 1.28784 67.3858C0.850435 64.3007 0.48593 61.1914 0.0728239 58.082C0.0728239 54.9969 0.0728239 51.9361 0.0728239 48.851C0.461629 46.3247 0.826087 43.8226 1.23919 41.2963C4.37394 21.5955 18.0794 6.65596 37.4468 1.94332C40.9703 1.09311 44.591 0.63159 48.1631 0C51.7596 0 55.3562 0 58.9283 0C59.3414 0.12146 59.7787 0.291464 60.1918 0.340048C72.7308 1.45748 84.7596 4.63975 96.1321 9.93539C130.711 26.0652 157.733 50.6972 177.83 83.0298C178.17 83.5885 178.534 84.1229 178.972 84.8273C184.318 73.07 186.432 55.9929 184.464 43.4096C181.329 23.3931 166.263 13.3119 148.742 11.8787C142.74 11.3929 136.859 12.0002 130.93 12.6804C127.285 13.0933 124.563 10.9313 124.247 7.65194C123.907 4.22678 126.143 1.6518 129.837 1.16596C132.607 0.801586 135.401 0.388671 138.172 0C141.768 0 145.365 0 148.937 0C151.999 0.51013 155.109 0.874518 158.146 1.60328C174.087 5.34423 186.043 14.1136 192.532 29.4418C196.833 39.6444 197.513 50.43 196.517 61.3128C195.375 73.7745 191.973 85.6533 186.724 97.0219C186.335 97.8479 186.408 99.1353 186.724 100.034C188.085 103.751 189.785 107.346 191.073 111.087C196.128 125.735 198.874 140.674 195.812 156.148C192.434 173.201 183.03 185.663 166.797 192.465C155.133 197.348 142.935 197.809 130.566 195.939C119.922 194.335 109.837 190.959 100.044 186.586C99.1939 186.198 97.9304 186.246 97.0555 186.586C92.4871 188.238 88.04 190.254 83.4229 191.736C70.5195 195.866 57.3488 198.173 43.7163 196.23C22.0647 193.169 7.24142 179.906 1.89535 158.602C1.09344 155.395 0.607508 152.116 0 148.885C0 144.78 0 140.674 0 136.569L0.0241757 136.448ZM112.195 178.716C112.754 178.983 113.118 179.201 113.507 179.347C124.734 183.574 136.325 185.687 148.305 184.862C155.789 184.351 162.982 182.554 169.3 178.23C179.798 171.015 184.172 160.472 185.071 148.229C185.897 137.031 184.051 126.172 180.43 115.581C180.041 114.415 179.531 113.273 178.996 111.889C162.059 139.727 139.897 161.857 112.195 178.716Z" fill="#0060E4"/>
</svg>
