<svg width="29" height="34" viewBox="0 0 29 34" fill="none" xmlns="http://www.w3.org/2000/svg">
<g clip-path="url(#clip0_56_471)">
<path d="M24.1345 0C24.3751 0.0542801 24.6182 0.103391 24.8563 0.165425C27.3561 0.814201 29.1189 3.19736 28.9872 5.74593C28.8454 8.49354 26.9332 10.6958 24.3143 11.068C22.592 11.3135 21.08 10.8069 19.7959 9.6024C19.6996 9.51452 19.6085 9.42147 19.497 9.31291C16.5109 11.1998 13.5324 13.0841 10.5361 14.9787C11.0224 16.3254 11.025 17.6669 10.5361 19.0161C13.5223 20.9056 16.4957 22.7847 19.4894 24.6768C19.6718 24.5087 19.8516 24.3356 20.039 24.1753C21.8018 22.6632 24.2763 22.4435 26.2645 23.617C28.2223 24.7724 29.3114 27.1013 28.9264 29.3035C28.506 31.6996 26.7711 33.5011 24.484 33.9147C20.4848 34.6384 17.1264 30.7458 18.3471 26.7885C18.4409 26.4861 18.3877 26.3569 18.1268 26.1914C15.3306 24.439 12.5395 22.6736 9.75605 20.9004C9.54583 20.766 9.43946 20.7919 9.26976 20.9599C7.62854 22.5986 5.22496 23.0199 3.16583 22.0429C1.11684 21.0736 -0.172335 18.9179 0.0176216 16.6226C0.207578 14.3248 1.37518 12.6679 3.48243 11.8279C5.59221 10.9878 7.52216 11.4376 9.21151 12.9704C9.29256 13.0427 9.36854 13.1229 9.44705 13.2004C9.45465 13.2082 9.46732 13.2107 9.49518 13.2237C9.5509 13.1952 9.61928 13.1694 9.6826 13.1306C12.5294 11.3316 15.3712 9.53003 18.2205 7.73879C18.4003 7.62506 18.4409 7.53459 18.3725 7.32006C17.3214 3.94694 19.3678 0.60742 22.8149 0.0542801C22.8656 0.0465258 22.9162 0.0180934 22.9669 0C23.3569 0 23.747 0 24.137 0L24.1345 0ZM23.5393 31.9555C25.4591 31.9555 27.0041 30.3684 26.9965 28.4092C26.9889 26.4732 25.4363 24.8965 23.5342 24.8965C21.6169 24.8965 20.0643 26.4913 20.0795 28.4453C20.0922 30.3968 21.6296 31.958 23.5393 31.9555ZM20.0795 5.57534C20.0871 7.52167 21.6296 9.09579 23.5317 9.09579C25.4464 9.09579 27.0016 7.50616 26.9965 5.55208C26.9914 3.59541 25.4262 2.01612 23.5089 2.03421C21.5967 2.0523 20.0719 3.62384 20.0795 5.57275V5.57534ZM1.99317 17.0026C1.99823 18.9515 3.53561 20.5205 5.44277 20.523C7.3626 20.5256 8.91518 18.9437 8.91264 16.9871C8.91011 15.0304 7.35247 13.4563 5.42758 13.4666C3.52042 13.477 1.9881 15.0537 1.99317 17V17.0026Z" fill="black"/>
<path d="M23.5419 31.9555C21.6348 31.9555 20.0974 30.3969 20.0822 28.4454C20.0695 26.4913 21.6221 24.8939 23.5369 24.8965C25.439 24.8965 26.9915 26.4732 26.9991 28.4092C27.0067 30.371 25.4617 31.9529 23.5419 31.9555Z" fill="#73CCFF"/>
<path d="M20.0822 5.57532C20.0746 3.62641 21.5993 2.05487 23.5115 2.03678C25.4288 2.01868 26.9941 3.59797 26.9991 5.55464C27.0042 7.50872 25.4491 9.09835 23.5343 9.09835C21.6322 9.09835 20.0898 7.52423 20.0822 5.5779V5.57532Z" fill="#73CCFF"/>
<path d="M1.99327 17.0027C1.9882 15.0563 3.52052 13.477 5.42768 13.4693C7.35004 13.4589 8.90768 15.0331 8.91274 16.9897C8.91528 18.9464 7.3627 20.5283 5.44287 20.5257C3.53571 20.5231 1.99833 18.9542 1.99327 17.0052V17.0027Z" fill="#73CCFF"/>
</g>
<defs>
<clipPath id="clip0_56_471">
<rect width="29" height="34" fill="white"/>
</clipPath>
</defs>
</svg>
