<svg width="19" height="22" viewBox="0 0 19 22" fill="none" xmlns="http://www.w3.org/2000/svg">
<g clip-path="url(#clip0_22_572)">
<path d="M6.25036 22.0002C5.71635 21.9261 5.17627 21.8582 4.66652 21.6669C2.10568 20.7289 0.515773 18.9208 0.0849204 16.1747C-0.509778 12.3979 2.16636 8.99148 5.74669 8.45459C6.37173 8.36203 6.9907 8.35586 7.61574 8.42374C7.76138 8.44225 7.82813 8.49779 7.82207 8.65207C7.82207 9.73818 7.82207 10.8305 7.82207 11.9166C7.82207 12.1079 7.75531 12.1264 7.59147 12.0832C5.76489 11.6204 4.02935 12.7435 3.66525 14.6257C3.31328 16.4524 4.70293 18.2605 6.52344 18.3962C8.18617 18.5197 9.7336 17.3286 9.93385 15.539C9.95206 15.3601 9.94599 15.1811 9.94599 15.0021C9.94599 10.1516 9.94599 5.30116 9.94599 0.444496C9.94599 0.364272 9.94599 0.284048 9.94599 0.209994C9.93992 0.0618876 10.0006 0.00634766 10.1462 0.00634766C10.4618 0.00634766 10.7774 0.00634766 11.0929 0.00634766C11.815 0.00634766 12.5432 0.00634766 13.2654 0.00634766C13.4535 0.00634766 13.5263 0.0742298 13.5384 0.259363C13.5931 1.64786 14.1149 2.84506 15.0677 3.83861C15.9537 4.76427 17.0278 5.30733 18.29 5.46161C18.5206 5.49246 18.7512 5.49863 18.9818 5.51715V9.12107C18.7633 9.13959 18.5448 9.10873 18.3324 9.09639C17.2098 9.02234 16.1478 8.73229 15.1284 8.24478C14.6247 8.0041 14.1453 7.72023 13.6962 7.38082C13.5931 7.3006 13.5324 7.3006 13.5384 7.45487C13.5384 7.51041 13.5384 7.57213 13.5384 7.62767C13.5384 10.1085 13.5445 12.5892 13.5506 15.07C13.5506 15.4341 13.5324 15.7982 13.4717 16.1561C13.0105 18.8529 11.4995 20.6549 8.99326 21.6237C8.44711 21.8336 7.86454 21.92 7.28805 22.0002H6.23216H6.25036Z" fill="white"/>
</g>
<defs>
<clipPath id="clip0_22_572">
<rect width="19" height="22" fill="white"/>
</clipPath>
</defs>
</svg>
