<svg width="24" height="22" viewBox="0 0 24 22" fill="none" xmlns="http://www.w3.org/2000/svg">
<g clip-path="url(#clip0_22_570)">
<path d="M10.1241 14.3711C9.62554 14.9006 9.1695 15.3748 8.71953 15.8612C7.78313 16.871 6.8528 17.8869 5.92247 18.8967C5.04687 19.8449 4.16519 20.7932 3.28959 21.7537C3.13149 21.9261 2.96732 22 2.73626 21.9938C1.92754 21.9815 1.11882 21.9877 0.310109 21.9815C0.231062 21.9815 0.152014 21.9692 0.0364834 21.9569C0.0851279 21.8707 0.10945 21.8091 0.145934 21.766C2.33494 19.3955 4.52394 17.0311 6.71903 14.6667C7.34533 13.9894 7.96554 13.3059 8.59792 12.6348C8.73778 12.4808 8.71345 12.3762 8.604 12.2284C7.71016 10.9784 6.8224 9.72852 5.93463 8.47243C4.20167 6.00336 2.45655 3.52813 0.711426 1.05905C0.486445 0.732718 0.261464 0.412538 0 0.043101C0.133772 0.0246292 0.206739 0.0123146 0.279706 0.0123146C2.94299 0.00615729 5.60628 0.00615729 8.26957 0C8.50063 0 8.63441 0.0923593 8.7621 0.277078C9.63162 1.52085 10.5133 2.75231 11.3889 3.99608C12.0638 4.95662 12.7388 5.91716 13.4137 6.88385C13.6083 7.16093 13.6205 7.16709 13.8515 6.92079C15.6088 5.02435 17.3661 3.12175 19.1173 1.21914C19.4396 0.874335 19.7436 0.517212 20.072 0.172404C20.1449 0.0923594 20.2726 0.0184719 20.376 0.0184719C21.3002 0.00615729 22.2306 0.0123146 23.1548 0.0123146C23.1913 0.0123146 23.2217 0.0307865 23.3007 0.0554156C23.2278 0.147775 23.1791 0.22782 23.1183 0.29555C21.4097 2.14889 19.701 4.0084 17.9863 5.86174C17.0378 6.89001 16.0953 7.91212 15.1406 8.93423C15.019 9.06353 15.0008 9.14358 15.1163 9.30367C16.5087 11.2678 17.8829 13.2382 19.2693 15.2085C20.4794 16.9326 21.6955 18.6566 22.9116 20.3868C23.2156 20.8178 23.5136 21.2488 23.8176 21.686C23.8723 21.766 23.9149 21.8522 24 22.0062C23.7081 22.0062 23.4832 22.0062 23.2582 22.0062C20.7773 22.0062 18.3025 22.0062 15.8216 22.0062C15.6088 22.0062 15.4629 21.9446 15.3413 21.766C13.9792 19.8203 12.605 17.8746 11.2369 15.9351C10.8781 15.4302 10.5194 14.9314 10.1302 14.3834L10.1241 14.3711ZM19.6585 19.6664C19.5429 19.4878 19.47 19.3708 19.3909 19.26C18.0046 17.2958 16.6121 15.3317 15.2257 13.3675C13.7117 11.2309 12.1976 9.09432 10.6836 6.95774C9.64378 5.48615 8.604 4.0084 7.56423 2.53065C7.44869 2.37056 7.32708 2.30283 7.1325 2.30283C6.30555 2.31514 5.47859 2.30283 4.65163 2.30898C4.58475 2.30898 4.51786 2.32746 4.40841 2.33977C4.4753 2.44444 4.51178 2.51217 4.56043 2.57375C5.27793 3.58354 5.99544 4.59334 6.71295 5.60314C8.44591 8.05989 10.1789 10.5167 11.9179 12.9673C13.4077 15.073 14.9156 17.1727 16.3993 19.2785C16.5878 19.5432 16.7702 19.7095 17.1168 19.6541C17.36 19.6171 17.6093 19.6479 17.8586 19.6479C18.4363 19.6479 19.0079 19.6479 19.6646 19.6479L19.6585 19.6664Z" fill="white"/>
</g>
<defs>
<clipPath id="clip0_22_570">
<rect width="24" height="22" fill="white"/>
</clipPath>
</defs>
</svg>
