<svg width="396" height="319" viewBox="0 0 396 319" fill="none" xmlns="http://www.w3.org/2000/svg">
<g clip-path="url(#clip0_67_623)">
<path d="M279.681 319C267.806 316.609 255.945 314.12 244.048 311.84C217.079 306.671 190.088 301.599 163.108 296.498C137.495 291.654 111.883 286.82 86.2661 281.994C83.6516 281.499 81.3445 280.888 79.4895 278.49C54.1984 245.775 28.8386 213.115 3.37762 180.534C-0.726659 175.281 -0.737507 169.888 1.47555 164.137C2.49891 161.474 1.64189 158.92 1.51894 156.319C1.47194 155.355 1.14649 154.159 2.36873 153.841C3.29445 153.599 3.71031 154.668 4.14786 155.348C5.38818 157.269 6.14033 159.321 5.69917 161.669C5.33032 163.635 5.69193 165.502 6.64297 167.663C9.06215 165.105 7.10222 162.569 6.93587 159.137C9.29719 162.081 9.7022 164.917 10.8232 167.395C12.3709 166.781 11.7959 165.379 12.3311 164.494C13.1122 163.198 13.6112 161.449 15.6073 161.944C17.4081 162.388 17.8891 163.999 17.701 165.593C17.0863 170.726 17.4154 175.773 18.0337 180.91C18.6918 186.386 22.6659 189.67 28.1118 187.997C31.9666 186.812 35.4742 187.448 38.8806 189.236C42.569 191.169 46.5648 190.266 50.1628 189.753C58.9283 188.507 66.8476 184.862 73.7109 179.089C74.7234 178.236 76.2169 177.958 77.4645 177.373C79.7245 176.314 81.8689 175.444 82.386 172.326C82.8742 169.378 85.9153 168.544 87.6004 171.011C90.7862 175.679 96.044 175.288 99.8518 175.043C105.518 174.674 111.55 176.488 117.017 173.504C118.001 172.966 118.829 173.757 119.657 174.306C122.138 175.942 125.027 175.39 126.604 173.63C129.753 170.112 132.274 172.33 133.897 174.385C136.725 177.965 139.3 178.858 143.874 177.427C151.201 175.133 158.53 175.462 164.446 181.6C165.867 183.077 167.788 182.712 169.596 182.293C173.834 181.31 178.043 181.115 182.436 181.48C189.567 182.073 196.015 178.876 202.564 176.6C206.339 175.288 210.291 174.331 213.278 171.224C215.101 169.328 215.665 168.006 213.199 166.33C211.832 165.401 210.812 164.025 209.228 163.313C208.06 162.789 206.993 161.904 207.388 160.409C207.731 159.097 208.943 158.472 210.082 157.959C211.752 157.204 212.284 158.743 212.978 159.657C215.459 162.909 217.191 167.428 222.423 166.532C229.283 165.358 234.794 163.179 237.535 155.16C239.528 149.336 236.776 149.886 233.51 149.123C232.306 148.842 231.073 148.394 230.043 147.729C228.831 146.945 226.705 146.667 226.882 144.824C227.063 142.971 228.9 141.877 230.212 140.695C231.514 139.521 231.691 140.887 232.002 141.822C233.641 146.721 239.737 149.448 244.59 147.425C245.914 146.876 247.074 145.97 247.371 144.507C247.693 142.921 246.272 142.451 245.219 141.808C244.055 141.093 242.688 140.547 242.627 138.459C244.879 139.698 247.32 141.49 249.103 138.578C249.996 137.123 253.2 134.543 248.25 133.669C247.096 133.467 246.539 132.184 246.857 130.978C247.114 130.002 248.004 130.035 248.915 130.114C253.16 130.49 255.5 127.578 253.818 123.334C252.857 120.906 253.081 119.653 255.052 118.092C256.176 117.2 256.747 115.589 257.507 114.266C258.353 112.793 259.225 111.102 260.996 110.896C268.782 109.986 273.331 103.754 279.381 100.004C280.259 99.4589 280.542 98.8954 279.894 98.0067C279.225 97.0891 279.023 96.1029 280.278 95.6189C281.568 95.1203 281.887 96.2005 282.245 97.1542C283.026 99.2169 284.223 98.1909 285.123 97.3637C287.376 95.2937 289.528 93.1118 291.712 90.9696C292.008 90.677 292.279 90.3555 292.543 90.034C293.939 88.3325 289.828 87.657 291.762 85.829C293.202 84.4671 294.615 87.899 296.134 85.7423C298.738 82.0504 302.365 78.9762 303.034 74.1607C303.131 73.4671 302.864 72.629 303.887 72.6796C307.702 72.8566 309.17 69.9341 310.649 67.3621C312.935 63.3992 317.122 61.2967 319.635 57.5361C321.953 54.0681 324.622 50.853 326.383 47.013C326.882 45.9292 327.316 43.7184 329.113 44.8238C331.001 45.9834 328.676 47.0852 328.278 48.5121C329.789 48.5121 331.218 48.6024 332.632 48.4796C333.463 48.4074 334.27 47.9377 334.508 47.031C334.787 45.9726 334.045 45.7739 333.206 45.3548C330.44 43.964 331.026 42.501 333.478 41.4389C335.13 40.72 336.866 39.8891 338.616 39.7519C341.592 39.5134 343.527 37.9023 345.143 35.7384C346.25 34.2537 347.414 33.1013 349.24 32.4077C362.114 27.5272 367.209 16.5164 370.579 4.46517C371.465 1.2898 372.716 0.032655 375.84 0.0037552C378.549 -0.0215322 379.688 1.3765 379.786 3.79325C379.97 8.37387 379.974 12.9762 378.625 17.4123C376.838 23.2826 378.216 29.2721 377.865 35.1965C377.634 39.1125 381.793 41.7676 385.962 41.2908C391.032 40.7128 393.559 42.8044 394.568 47.7246C395.534 52.4353 394.322 57.1171 394.858 61.8097C394.999 63.0488 394.503 64.3203 396.007 64.9995V99.2566C394.492 99.7046 393.57 100.716 393.624 102.291C393.812 107.645 389.802 109.783 385.966 111.488C383.441 112.608 381.565 113.443 380.306 116.239C379.211 118.677 377.374 121.278 373.667 121.04C370.152 120.812 369.082 118.309 367.867 115.795C366.901 113.797 366.156 111.72 364.623 110C363.325 108.541 363.354 106.966 365.748 106.883C369.067 106.771 368.471 104.769 367.899 102.855C367.176 100.427 365.365 99.5312 362.859 99.253C357.59 98.6642 348.387 105.875 350.148 113.302C351.211 117.781 350.267 122.514 352.036 126.896C352.56 128.193 351.808 129.276 351.142 130.382C347.548 136.328 347.696 142.895 350.322 148.704C352.347 153.184 352.271 156.496 349.75 160.308C348.796 161.753 346.959 163.667 348.336 165.13C349.873 166.763 352.477 167.269 354.914 166.828C355.717 166.684 356.451 166.185 357.228 165.874C360.454 164.588 362.501 165.788 362.996 169.071C363.426 171.918 364.511 174.342 366.12 176.672C367.802 179.107 367.187 180.844 364.193 181.542C360.248 182.459 356.379 183.583 352.77 185.497C352.083 185.862 350.944 186.162 350.376 185.844C346.836 183.861 342.956 185.559 339.31 184.659C337.293 184.161 335.054 184.453 333.387 185.992C331.37 187.856 328.965 188.842 326.397 189.579C325.197 189.923 323.787 190.165 323.714 191.758C323.649 193.217 324.868 193.893 325.945 194.536C327.504 195.461 329.489 196.212 329.634 198.228C329.995 203.296 331.113 208.531 327.027 212.891C325.07 214.979 324.26 217.601 323.967 220.495C323.635 223.808 323.24 227.315 320.452 229.62C317.56 232.008 316.316 235.057 315.639 238.586C314.352 245.309 312.721 251.963 308.725 257.686C303.804 264.737 301.312 272.54 301.153 281.076C301.081 284.953 301.435 288.832 301.461 292.712C301.504 299.381 299.873 304.977 293.769 309.174C289.86 311.862 285.908 314.961 283.04 319.004H279.692L279.681 319Z" fill="#0060E4"/>
<path d="M186.555 172.196C184.682 175.588 181.276 176.788 177.425 175.328C175.255 174.508 173.335 172.998 170.771 173.403C169.939 173.533 169.133 173.005 168.988 172.023C168.847 171.069 169.458 170.379 170.181 170C173.563 168.215 176.322 165.159 180.534 165.047C181.616 165.018 182.737 164.668 183.749 164.245C185.969 163.317 188.472 160.521 189.123 165.77C189.271 166.958 191.357 167.215 192.699 167.536C195.487 168.208 197.534 169.639 196.431 172.749C195.35 175.801 192.703 175.484 190.113 174.801C188.58 174.396 187.68 173.168 186.555 172.2V172.196Z" fill="#0060E4"/>
<path d="M173.006 250.332C173.126 249.564 173.226 248.797 173.371 248.036C174.188 243.715 175.968 239.783 178.263 236.066C180.709 232.097 183.689 228.58 187.148 225.461C187.368 225.259 187.588 225.064 187.883 224.794C187.418 224.737 187.041 224.687 186.664 224.643C186.418 224.611 186.167 224.593 185.922 224.555C185.054 224.404 184.545 223.706 184.658 222.838C184.752 222.083 185.494 221.504 186.305 221.58C187.607 221.705 188.908 221.85 190.21 221.995C190.707 222.045 191.197 222.12 191.694 222.164C192.706 222.259 193.31 222.995 193.197 224.001C193.002 225.762 192.807 227.524 192.618 229.291C192.518 230.229 191.851 230.807 190.939 230.738C190.141 230.675 189.575 229.983 189.625 229.109C189.663 228.486 189.738 227.863 189.801 227.159C189.525 227.398 189.304 227.587 189.084 227.788C184.023 232.424 180.042 237.827 177.552 244.256C176.54 246.866 175.918 249.571 175.999 252.401C176.05 254.332 176.496 256.163 177.383 257.893C178.697 260.453 180.778 262.013 183.576 262.585C187.462 263.384 191.216 262.774 194.869 261.359C194.882 261.359 194.888 261.333 194.932 261.271C194.794 261.182 194.655 261.082 194.511 260.994C189.066 257.673 184.463 253.42 180.615 248.338C179.835 247.306 180.294 246.023 181.52 245.828C182.155 245.727 182.633 246.017 183.01 246.52C185.161 249.382 187.607 251.967 190.342 254.288C192.675 256.27 195.177 258 197.869 259.459C198.328 259.711 198.667 259.723 199.139 259.472C203.716 257.006 207.665 253.754 211.167 249.936C213.676 247.199 215.852 244.224 217.581 240.922C217.745 240.607 217.745 240.368 217.581 240.054C215.242 235.537 212.067 231.669 208.363 228.222C204.955 225.052 201.207 222.366 196.951 220.435C193.643 218.938 190.197 218 186.538 218.019C184.872 218.026 183.237 218.309 181.702 219.001C178.628 220.384 176.943 222.844 176.301 226.09C175.905 228.084 176.031 230.078 176.307 232.078C176.439 233.009 175.905 233.732 175.056 233.845C174.182 233.965 173.465 233.386 173.333 232.449C173.22 231.65 173.126 230.845 173.019 230.04C173.019 229.241 173.019 228.448 173.019 227.65C173.119 226.995 173.214 226.347 173.321 225.693C174.132 220.592 177.678 216.723 182.69 215.503C183.601 215.283 184.538 215.164 185.463 215C186.393 215 187.324 215 188.248 215C188.355 215.031 188.468 215.075 188.575 215.088C191.82 215.377 194.932 216.201 197.875 217.573C206.823 221.749 213.815 228.128 219.015 236.5C219.103 236.644 219.197 236.783 219.31 236.965C220.694 233.921 221.241 229.499 220.731 226.241C219.92 221.057 216.022 218.447 211.488 218.076C209.935 217.95 208.413 218.107 206.879 218.283C205.936 218.39 205.232 217.831 205.15 216.981C205.062 216.094 205.64 215.428 206.596 215.302C207.313 215.208 208.036 215.101 208.753 215C209.684 215 210.614 215 211.538 215C212.331 215.132 213.136 215.226 213.922 215.415C218.046 216.384 221.14 218.655 222.819 222.624C223.932 225.266 224.108 228.058 223.85 230.876C223.555 234.103 222.674 237.179 221.316 240.123C221.216 240.337 221.234 240.67 221.316 240.903C221.668 241.865 222.108 242.796 222.442 243.765C223.75 247.558 224.46 251.426 223.668 255.433C222.794 259.849 220.36 263.076 216.16 264.837C213.142 266.101 209.985 266.221 206.785 265.737C204.031 265.321 201.421 264.447 198.887 263.315C198.667 263.214 198.34 263.227 198.114 263.315C196.932 263.743 195.781 264.265 194.586 264.648C191.247 265.718 187.839 266.315 184.312 265.812C178.709 265.019 174.874 261.585 173.49 256.069C173.283 255.238 173.157 254.389 173 253.552C173 252.489 173 251.426 173 250.363L173.006 250.332ZM202.031 261.277C202.176 261.346 202.27 261.403 202.371 261.44C205.276 262.535 208.275 263.082 211.375 262.868C213.312 262.736 215.173 262.271 216.808 261.151C219.524 259.283 220.656 256.553 220.889 253.383C221.102 250.483 220.624 247.671 219.688 244.929C219.587 244.627 219.455 244.331 219.317 243.973C214.934 251.181 209.199 256.911 202.031 261.277Z" fill="white"/>
</g>
<defs>
<clipPath id="clip0_67_623">
<rect width="396" height="319" fill="white"/>
</clipPath>
</defs>
</svg>
