<svg width="32" height="31" viewBox="0 0 32 31" fill="none" xmlns="http://www.w3.org/2000/svg">
<path d="M15.1712 0.00362694H16.1531C16.8126 0.0652247 17.4793 0.0869612 18.1351 0.19204C21.1027 0.659458 23.7586 1.81533 25.9834 3.79008C30.3242 7.63813 32.078 12.4391 31.038 18.0699C29.6177 25.766 22.3672 31.0417 14.5806 30.4438C12.4754 30.2808 10.4897 29.7445 8.61645 28.806C8.38455 28.6901 8.18164 28.6611 7.93525 28.7263C5.98948 29.2336 4.04009 29.7372 2.0907 30.2264C1.39501 30.4003 0.71381 30.6286 0 30.7301C0 30.7083 0 30.6866 0 30.6648C0.0398574 30.5416 0.0833382 30.4221 0.119572 30.2989C0.779031 27.9509 1.43124 25.5993 2.10157 23.255C2.18491 22.9651 2.15592 22.7368 2.01099 22.4723C0.438431 19.6098 -0.155806 16.5589 0.260885 13.3414C0.670329 10.1926 1.96751 7.4171 4.15242 5.06189C6.49313 2.53638 9.38461 0.93846 12.816 0.282625C13.5986 0.134065 14.3885 0.0760914 15.1784 0L15.1712 0.00362694ZM16.1024 27.8458C16.5263 27.8567 17.3525 27.7734 18.1641 27.6176C25.0594 26.2986 29.5851 19.907 28.4364 13.1385C27.3422 6.6888 21.1099 1.76097 13.8523 2.79364C10.6021 3.25382 7.90264 4.7539 5.81193 7.22869C3.51107 9.94624 2.56174 13.0913 2.91321 16.5952C3.1125 18.588 3.79732 20.4287 4.91695 22.1064C5.07276 22.3419 5.10175 22.552 5.02203 22.8202C4.65607 24.0775 4.30822 25.3421 3.95675 26.6066C3.84443 27.0052 3.88428 27.0414 4.29735 26.9327C5.62714 26.5958 6.9533 26.2588 8.27947 25.9073C8.56934 25.8312 8.79399 25.8675 9.04763 26.016C11.0912 27.219 13.3087 27.8277 16.1024 27.8422V27.8458Z" fill="black"/>
<path d="M19.7874 22.5738C18.6388 22.6136 17.6133 22.1716 16.5807 21.7803C13.8124 20.7367 11.7362 18.8417 9.95708 16.5916C9.22878 15.6712 8.54758 14.7219 8.13451 13.6167C7.68884 12.4283 7.64536 11.247 8.15625 10.0694C8.41714 9.47157 8.82658 8.97517 9.31574 8.54036C9.60199 8.2831 9.96071 8.18526 10.3375 8.18164C10.631 8.18164 10.9245 8.19976 11.218 8.22875C11.5151 8.25773 11.6746 8.46789 11.7869 8.70703C11.9862 9.13459 12.1637 9.5694 12.3485 10.0006C12.5877 10.5586 12.8232 11.1238 13.0696 11.6782C13.2109 12.0007 13.2 12.3014 12.9862 12.5841C12.6964 12.9682 12.4137 13.3631 12.0985 13.7291C11.8594 14.0081 11.8485 14.2545 12.0405 14.5624C13.2942 16.5915 15.0226 18.0699 17.28 18.9504C17.6025 19.0772 17.8706 19.0446 18.0952 18.7692C18.4685 18.3127 18.8525 17.8597 19.2257 17.4032C19.5192 17.0445 19.6968 16.972 20.128 17.1459C21.2295 17.5844 22.2839 18.1206 23.3419 18.646C23.6499 18.7982 23.6717 19.0736 23.6535 19.3598C23.5267 21.1715 22.1245 22.4941 20.2439 22.5738C20.0917 22.581 19.9396 22.5738 19.7874 22.5738Z" fill="black"/>
</svg>
