<svg width="32" height="22" viewBox="0 0 32 22" fill="none" xmlns="http://www.w3.org/2000/svg">
<g clip-path="url(#clip0_22_567)">
<path d="M12.9689 0H18.9573C20.0049 0.0364943 21.0588 0.0729887 22.1064 0.103401C23.9848 0.158142 25.8631 0.249378 27.7291 0.498756C29.7314 0.772463 31.0022 1.89162 31.4547 3.82582C31.7151 4.9389 31.8205 6.07631 31.8887 7.21371C31.9259 7.76721 31.9631 8.31463 32.0003 8.86812V12.9129C31.9879 13.0832 31.9631 13.2596 31.9569 13.4299C31.8887 14.9688 31.7833 16.5076 31.4857 18.0282C31.1076 19.9563 29.7872 21.2032 27.8716 21.4769C26.7062 21.6411 25.5346 21.7324 24.3629 21.7932C22.0134 21.9209 19.664 21.9635 17.3145 21.9939C14.8968 22.0243 12.4791 21.9635 10.0677 21.8844C8.15214 21.8175 6.23661 21.7385 4.33347 21.483C2.26915 21.2093 0.998327 20.0719 0.558188 18.0829C0.291625 16.8786 0.192438 15.6561 0.118048 14.4335C0.000264636 12.5845 -0.0431294 10.7415 0.0498578 8.89245C0.124248 7.29887 0.229633 5.70528 0.508595 4.12994C0.861946 2.13492 2.08938 0.863699 4.05451 0.529168C4.61863 0.43185 5.19515 0.364943 5.77167 0.322367C7.98477 0.158142 10.1979 0.0608239 12.411 0.0425767C12.5969 0.0425767 12.7891 0.0608239 12.9751 0H12.9689ZM12.8635 10.9848C12.8635 12.3959 12.8635 13.807 12.8635 15.2181C12.8635 15.6196 12.8635 15.6196 13.2292 15.4128C15.7337 14.0017 18.2382 12.5845 20.7488 11.1733C21.0588 10.997 21.0588 10.9848 20.7612 10.8145C18.2382 9.39121 15.7151 7.96185 13.1859 6.53857C12.8759 6.36218 12.8635 6.36826 12.8635 6.71496C12.8635 8.13824 12.8635 9.56151 12.8635 10.9848Z" fill="white"/>
</g>
<defs>
<clipPath id="clip0_22_567">
<rect width="32" height="22" fill="white"/>
</clipPath>
</defs>
</svg>
